<svg xmlns="http://www.w3.org/2000/svg" xmlns:xlink="http://www.w3.org/1999/xlink" xmlns:lucid="lucid" width="2722.5" height="2062.08"><g transform="translate(0 0)" lucid:page-tab-id="oxFT1kEzUwiM"><path d="M119.9 256.1h2457.55v1656.2H119.9z" stroke="#232f3e" stroke-width="2" fill="#fff"/><path d="M119.9 256.1h56v56h-56v-56z" stroke="#fff" stroke-opacity="0" fill="#232f3e"/><path d="M138.1 281.97c-.03.48.05.87.17 1.33.13.38.3.7.5 1.07.04.1.08.2.08.34 0 .2-.12.36-.3.46l-.93.62c-.13.08-.25.12-.37.12-.17 0-.33-.07-.45-.2-.2-.22-.37-.43-.54-.7-.16-.25-.3-.53-.45-.87-1.1 1.38-2.62 2.1-4.38 2.07-1.15.06-2.14-.3-2.96-1.08-.78-.8-1.15-1.76-1.1-2.86-.05-1.22.4-2.27 1.35-3.07 1.07-.86 2.3-1.24 3.66-1.17.58 0 1.03.03 1.6.12.58.08 1.1.2 1.73.32v-1.1c.07-.88-.18-1.67-.7-2.37-.75-.56-1.57-.8-2.47-.7-.54 0-1.03.06-1.6.2-.58.13-1.03.3-1.6.5l-.5.2h-.25c-.2 0-.33-.16-.33-.46V274c0-.18.05-.34.13-.5.12-.16.24-.26.4-.33.66-.3 1.2-.5 1.9-.68.78-.2 1.48-.3 2.3-.3 1.48-.1 2.8.28 3.9 1.22.94 1.04 1.35 2.28 1.23 3.67zm-6.07 2.27c.58 0 1.07-.08 1.6-.28.58-.2 1.03-.5 1.44-.95.25-.27.4-.57.5-.93.12-.45.16-.85.16-1.3v-.67c-.54-.1-.95-.17-1.44-.2h-1.4c-.83-.08-1.57.1-2.22.58-.54.45-.78 1.04-.74 1.73-.04.6.12 1.16.53 1.6.45.38 1 .5 1.56.44zm12 1.6c-.2.02-.42-.02-.58-.15-.17-.18-.25-.36-.33-.6l-3.5-11.5-.1-.63c0-.24.1-.36.35-.36h1.48c.2 0 .37.03.58.15.16.18.25.36.3.6l2.5 9.95 2.37-9.93c0-.24.1-.44.3-.6.15-.12.36-.16.56-.15h1.2c.24 0 .4.03.6.14.18.2.26.37.3.6l2.34 9.94 2.55-10c.04-.22.16-.4.32-.58.17-.1.37-.17.58-.14h1.4c.16 0 .32.1.37.3v.3s0 .2-.13.37l-3.62 11.52c-.04.23-.13.43-.3.6-.2.1-.36.15-.56.13h-1.28c-.24.03-.45-.02-.6-.15-.18-.17-.26-.36-.3-.6l-2.3-9.6-2.3 9.6c-.04.24-.12.43-.3.6-.2.13-.4.18-.6.16zm19.2.4c-.8 0-1.5-.08-2.3-.27-.65-.12-1.14-.3-1.7-.6-.22-.08-.38-.23-.47-.4-.08-.15-.12-.3-.12-.44v-.75c0-.3.12-.46.33-.46.12-.02.2-.02.3 0l.36.15c.57.24 1.02.4 1.6.5.6.15 1.15.2 1.8.2.78.06 1.48-.1 2.18-.5.5-.3.8-.8.75-1.4.04-.4-.12-.75-.37-1.03-.45-.4-.94-.65-1.52-.8l-2.18-.68c-.94-.25-1.72-.73-2.38-1.5-.5-.65-.74-1.35-.74-2.18 0-.6.13-1.08.42-1.6.28-.5.6-.9 1.06-1.23.5-.38 1-.6 1.6-.77.66-.18 1.2-.27 1.9-.25.32-.03.6-.03.98 0l.98.15.83.24.65.25c.17.12.3.23.45.38.1.16.13.3.13.5v.7c0 .32-.13.48-.37.48-.22-.03-.38-.1-.6-.2-.93-.4-1.8-.6-2.86-.56-.7-.05-1.32.08-1.97.4-.5.3-.74.8-.7 1.35 0 .4.12.76.45 1.06.5.4 1 .64 1.6.8l2.1.7c.94.23 1.68.7 2.3 1.42.5.63.7 1.3.7 2.1 0 .63-.13 1.16-.38 1.73-.28.54-.6.95-1.1 1.32-.5.4-1 .66-1.6.84-.75.23-1.4.33-2.14.34zM166 293.58c-5.6 3.82-11.38 5.58-18.16 5.56-8.55.04-15.83-2.74-22.17-8.45-.5-.43 0-1 .5-.68 7.07 4.05 14.02 5.9 22.2 5.88 6.1-.02 11.28-1.07 16.93-3.45.8-.35 1.5.54.7 1.13z" stroke="#fff" stroke-opacity="0" fill="#fff"/><path d="M168.05 291.3c-.65-.82-4.17-.4-5.75-.2-.48 0-.54-.36-.1-.67 2.8-1.97 7.4-1.4 8-.74.58.67-.16 5.28-2.8 7.48-.4.34-.78.15-.6-.28.54-1.52 1.87-4.84 1.25-5.6z" stroke="#fff" stroke-opacity="0" fill="#fff"/><use xlink:href="#a" transform="matrix(1,0,0,1,190.88565133390046,276.09679129241886) translate(0 14.4)"/><use xlink:href="#b" transform="matrix(1,0,0,1,190.88565133390046,276.09679129241886) translate(45.9 14.4)"/><path d="M214.74 370.53h2260V1862.7h-2260z" stroke="#248814" stroke-width="2" fill="#f6f6f7"/><path d="M214.74 370.53h56v56h-56v-56z" stroke="#fff" stroke-opacity="0" fill="#248814"/><path d="M246.5 398.83h-1.18v-1.1c-.12-1.73-1.48-3.08-3.2-3.2-1.9-.13-3.54 1.3-3.67 3.2v1.06h-1.18c-.45 0-.8.35-.8.8v6.12c0 .45.35.8.8.8h9.23c.44 0 .8-.35.8-.8v-6.1c0-.43-.36-.8-.8-.8zm-6.4-1.07c.1-1.02 1-1.76 2-1.67.9.08 1.58.76 1.67 1.66v1.07h-3.72zm5.65 7.1h-7.68v-4.43h7.63z" stroke="#fff" stroke-opacity="0" fill="#fff"/><path d="M257 396.27c-.08-2.44-1.57-4.47-3.86-5.3-1.58-.47-3.16-.14-4.4.9-.68-1.45-1.47-2.6-2.6-3.75-3.24-3.35-7.94-4.3-12.18-2.4-4.04 1.9-6.4 5.64-6.54 10.06v.7c-3.4.97-5.66 4.07-5.5 7.64v.63c.38 4.3 3.92 7.53 8.2 7.47h26s7.42-.63 7.42-8.1c.04-3.9-2.66-7.2-6.53-7.85zm-.95 14.4h-25.92c-3.46.04-6.3-2.54-6.58-5.97v-.52c-.16-3.05 1.92-5.7 4.9-6.32.4-.1.64-.46.6-.88-.05-.4-.05-.74 0-1.15.08-3.8 2.12-6.94 5.53-8.6 1.25-.57 2.4-.82 3.83-.84 2.63.07 4.88 1.03 6.7 2.92 1.25 1.3 2.05 2.6 2.63 4.3.04.15.12.3.25.37.37.27.87.18 1.12-.17.83-1.18 2.25-1.68 3.62-1.3 1.8.72 2.87 2.4 2.83 4.32-.08.4.2.82.63.9 3.57.36 6.2 3.55 5.82 7.1-.3 3.14-2.7 5.53-5.82 5.86z" stroke="#fff" stroke-opacity="0" fill="#fff"/><use xlink:href="#c" transform="matrix(1,0,0,1,285.7390985485566,390.5259569790842) translate(0 14.222222222222223)"/><use xlink:href="#d" transform="matrix(1,0,0,1,285.7390985485566,390.5259569790842) translate(0 35.55555555555556)"/><path d="M344.88 799.16h392.64v940.08H344.88z" fill="#fff" fill-opacity="0"/><path d="M356.66 799.16h7.85m7.87 0h7.85m7.85 0h7.85m7.86 0h7.85m7.85 0h7.85m7.86 0h7.84m7.85 0h7.85m7.85 0h7.85m7.85 0h7.86m7.85 0h7.86m7.85 0h7.87m7.85 0h7.85m7.86 0h7.85m7.85 0h7.85m7.86 0h7.85m7.84 0h7.85m7.85 0h7.85m7.85 0h7.85m7.86 0h7.85m7.86 0h7.86m7.85 0h7.85m7.85 0h7.86m7.85 0h7.85m7.85 0h7.86m7.85 0h3.92v4m0 7.95v7.98m0 7.97V835m0 7.98v7.97m0 7.96v7.98m0 7.97v7.97m0 7.96v7.97m0 7.97v7.96m0 7.97v7.97m0 7.96v7.97m0 7.97v7.96m0 7.97v7.97m0 7.96v7.97m0 7.97v7.96m0 7.97v7.97m0 7.96v7.97m0 7.97v7.96m0 7.97v7.97m0 7.96v7.97m0 7.97v7.96m0 7.97v7.97m0 7.96v7.97m0 7.97v7.96m0 7.97v7.97m0 7.96v7.97m0 7.97v7.96m0 7.97v7.97m0 7.96v7.97m0 7.97v7.97m0 7.95v7.97m0 7.96v7.97m0 7.97v7.97m0 7.95v7.97m0 7.97v7.95m0 7.97v7.97m0 7.95v7.97m0 7.97v7.95m0 7.97v7.97m0 7.95v7.97m0 7.97v7.95m0 7.97v7.97m0 7.95v7.97m0 7.97v7.95m0 7.97v7.97m0 7.95v7.97m0 7.97v7.95m0 7.97v7.97m0 7.95v7.97m0 7.97v7.95m0 7.97v7.97m0 7.95v7.97m0 7.97v7.96m0 7.96v7.97m0 7.95v7.97m0 7.97v7.96m0 7.96v7.97m0 7.96v7.96m0 7.97v7.96m0 7.96v7.97m0 7.96v3.98h-3.93m-7.86 0h-7.86m-7.85 0h-7.85m-7.85 0h-7.86m-7.85 0h-7.85m-7.86 0h-7.84m-7.85 0h-7.84m-7.86 0h-7.85m-7.85 0h-7.85m-7.86 0h-7.86m-7.85 0h-7.87m-7.85 0h-7.85m-7.85 0h-7.86m-7.85 0h-7.85m-7.85 0h-7.86m-7.84 0H498m-7.84 0h-7.86m-7.85 0h-7.85m-7.86 0h-7.85m-7.86 0h-7.85m-7.87 0h-7.85m-7.85 0h-7.85m-7.86 0h-7.85m-7.85 0h-7.86m-7.85 0h-7.84m-7.85 0h-3.92v-3.98m0-7.97v-7.98m0-7.96v-7.97m0-7.98v-7.96m0-7.97v-7.98m0-7.96v-7.97m0-7.98v-7.96m0-7.97v-7.98m0-7.96v-7.97m0-7.98v-7.96m0-7.97v-7.98m0-7.97V1560m0-7.98v-7.97m0-7.96v-7.98m0-7.97v-7.96m0-7.98v-7.97m0-7.96v-7.98m0-7.97v-7.96m0-7.98v-7.97m0-7.96v-7.98m0-7.97v-7.96m0-7.98v-7.97m0-7.96v-7.98m0-7.97v-7.96m0-7.98v-7.97m0-7.96v-7.98m0-7.97V1321m0-7.98v-7.97m0-7.96v-7.98m0-7.97v-7.97m0-7.96v-7.97m0-7.96v-7.98m0-7.97v-7.96m0-7.98v-7.97m0-7.97v-7.96m0-7.97v-7.97m0-7.96v-7.97m0-7.97v-7.96m0-7.97v-7.97m0-7.96v-7.97m0-7.97v-7.96m0-7.97v-7.97m0-7.96v-7.97m0-7.97v-7.96m0-7.97v-7.97m0-7.96v-7.97m0-7.97v-7.96m0-7.97v-7.97m0-7.96v-7.97m0-7.97v-7.96m0-7.97v-7.97m0-7.97v-7.95m0-7.97v-7.96m0-7.97v-7.97m0-7.96v-7.97m0-7.97v-7.97m0-7.95v-7.97m0-7.97v-7.95m0-7.97v-7.97m0-7.95v-4h3.93" stroke="#147eba" stroke-width="2" fill="none"/><use xlink:href="#e" transform="matrix(1,0,0,1,344.88097708033047,819.1641654912654) translate(127.36419753086419 12.444444444444446)"/><use xlink:href="#f" transform="matrix(1,0,0,1,344.88097708033047,819.1641654912654) translate(213.09259259259258 12.444444444444446)"/><use xlink:href="#g" transform="matrix(1,0,0,1,344.88097708033047,819.1641654912654) translate(254.44444444444446 12.444444444444446)"/><path d="M371.7 1343.18h339v361.93h-339z" fill="#147eba" fill-opacity=".13"/><path d="M371.7 1343.18h56v56h-56v-56z" stroke="#fff" stroke-opacity="0" fill="#147eba"/><path d="M415.08 1365.36c-.16-.17-.34-.25-.56-.25h-5.15v-5.57c-.03-2.54-.97-4.7-2.84-6.4-1.9-1.84-4.15-2.75-6.77-2.75-2.65 0-4.9.83-6.8 2.62-1.9 1.7-2.87 3.87-2.9 6.4v5.66h-5.15c-.24 0-.43.1-.58.26-.16.16-.22.33-.22.58v25.3c0 .4.34.78.8.78h29.6c.46 0 .8-.37.8-.8v-25.28c0-.2-.06-.38-.22-.54zm-23.46-5.9c.03-2.13.8-3.88 2.37-5.3 1.6-1.5 3.5-2.2 5.73-2.2 2.2 0 4.12.75 5.7 2.25 1.54 1.42 2.32 3.2 2.32 5.33v5.58H391.6zm22.1 30.94h-28.03v-23.7h28z" stroke="#fff" stroke-opacity="0" fill="#fff"/><path d="M398.9 1380.5v6.23h1.6v-6.23c2.13-.4 3.62-2.2 3.63-4.35 0-2.43-1.98-4.4-4.42-4.43-2.18-.03-4.04 1.5-4.4 3.68-.42 2.4 1.2 4.68 3.6 5.1zm.8-7.17c.8 0 1.46.27 2.02.83.54.55.82 1.2.8 2 .03 1.54-1.2 2.8-2.74 2.8h-.06c-1.56.13-2.93-1.04-3.04-2.6-.12-1.56 1.05-2.92 2.6-3.03h.44z" stroke="#fff" stroke-opacity="0" fill="#fff"/><use xlink:href="#h" transform="matrix(1,0,0,1,442.69835437236304,1363.1803039889448) translate(0 14.222222222222223)"/><use xlink:href="#i" transform="matrix(1,0,0,1,442.69835437236304,1363.1803039889448) translate(64.14814814814815 14.222222222222223)"/><use xlink:href="#j" transform="matrix(1,0,0,1,442.69835437236304,1363.1803039889448) translate(129.1358024691358 14.222222222222223)"/><use xlink:href="#k" transform="matrix(1,0,0,1,442.69835437236304,1363.1803039889448) translate(0 35.55555555555556)"/><path d="M371.7 921.86h339v347.96h-339z" fill="#248814" fill-opacity=".13"/><path d="M371.7 921.86h56v56h-56v-56z" stroke="#fff" stroke-opacity="0" fill="#248814"/><path d="M415.08 944.03c-.16-.16-.34-.25-.56-.25h-5.15v-5.57c-.03-2.53-.97-4.7-2.84-6.4-1.9-1.83-4.15-2.74-6.77-2.74-2.65 0-4.9.83-6.8 2.62-1.9 1.7-2.87 3.87-2.9 6.4v5.66h-5.15c-.24 0-.43.1-.58.25-.16.16-.22.33-.22.57v25.3c0 .4.34.8.8.8h29.6c.46 0 .8-.4.8-.8v-25.3c0-.2-.06-.37-.22-.54zm-23.46-5.9c.03-2.13.8-3.87 2.37-5.3 1.6-1.5 3.5-2.2 5.73-2.2 2.2 0 4.12.76 5.7 2.25 1.54 1.42 2.32 3.2 2.32 5.33v5.58H391.6zm22.1 30.95h-28.03v-23.72h28z" stroke="#fff" stroke-opacity="0" fill="#fff"/><path d="M398.9 959.17v6.24h1.6v-6.22c2.13-.4 3.62-2.2 3.63-4.35 0-2.43-1.98-4.4-4.42-4.43-2.18-.03-4.04 1.5-4.4 3.68-.42 2.4 1.2 4.68 3.6 5.1zm.8-7.16c.8 0 1.46.28 2.02.83.54.56.82 1.22.8 2 .03 1.54-1.2 2.8-2.74 2.82h-.06c-1.56.12-2.93-1.05-3.04-2.6-.12-1.57 1.05-2.94 2.6-3.04h.44z" stroke="#fff" stroke-opacity="0" fill="#fff"/><use xlink:href="#l" transform="matrix(1,0,0,1,442.69835437236304,941.8576744945481) translate(0 14.222222222222223)"/><use xlink:href="#i" transform="matrix(1,0,0,1,442.69835437236304,941.8576744945481) translate(58.17283950617284 14.222222222222223)"/><use xlink:href="#j" transform="matrix(1,0,0,1,442.69835437236304,941.8576744945481) translate(123.16049382716051 14.222222222222223)"/><use xlink:href="#k" transform="matrix(1,0,0,1,442.69835437236304,941.8576744945481) translate(0 35.55555555555556)"/><path d="M825.38 799.16H1218v940.08H825.4z" fill="#fff" fill-opacity="0"/><path d="M837.16 799.16H845m7.86 0h7.86m7.85 0h7.85m7.85 0h7.86m7.85 0h7.85m7.85 0h7.86m7.85 0h7.84m7.86 0h7.85m7.85 0h7.85m7.86 0h7.86m7.85 0h7.86m7.86 0h7.85m7.85 0h7.86m7.85 0h7.85m7.85 0h7.86m7.84 0h7.85m7.84 0h7.86m7.85 0h7.85m7.86 0h7.85m7.86 0h7.85m7.87 0h7.85m7.85 0h7.85m7.86 0h7.85m7.85 0h7.85m7.86 0h3.9v4m0 7.95v7.98m0 7.97V835m0 7.98v7.97m0 7.96v7.98m0 7.97v7.97m0 7.96v7.97m0 7.97v7.96m0 7.97v7.97m0 7.96v7.97m0 7.97v7.96m0 7.97v7.97m0 7.96v7.97m0 7.97v7.96m0 7.97v7.97m0 7.96v7.97m0 7.97v7.96m0 7.97v7.97m0 7.96v7.97m0 7.97v7.96m0 7.97v7.97m0 7.96v7.97m0 7.97v7.96m0 7.97v7.97m0 7.96v7.97m0 7.97v7.96m0 7.97v7.97m0 7.96v7.97m0 7.97v7.97m0 7.95v7.97m0 7.96v7.97m0 7.97v7.97m0 7.95v7.97m0 7.97v7.95m0 7.97v7.97m0 7.95v7.97m0 7.97v7.95m0 7.97v7.97m0 7.95v7.97m0 7.97v7.95m0 7.97v7.97m0 7.95v7.97m0 7.97v7.95m0 7.97v7.97m0 7.95v7.97m0 7.97v7.95m0 7.97v7.97m0 7.95v7.97m0 7.97v7.95m0 7.97v7.97m0 7.95v7.97m0 7.97v7.96m0 7.96v7.97m0 7.95v7.97m0 7.97v7.96m0 7.96v7.97m0 7.96v7.96m0 7.97v7.96m0 7.96v7.97m0 7.96v3.98h-3.9m-7.87 0h-7.85m-7.85 0h-7.85m-7.86 0h-7.85m-7.85 0h-7.85m-7.86 0h-7.84m-7.85 0h-7.85m-7.85 0h-7.85m-7.85 0h-7.86m-7.85 0h-7.86m-7.85 0h-7.87m-7.85 0h-7.85m-7.86 0h-7.85m-7.85 0h-7.85m-7.86 0h-7.85m-7.84 0h-7.85m-7.85 0h-7.85m-7.85 0h-7.86m-7.86 0h-7.85m-7.86 0h-7.86m-7.85 0h-7.85m-7.85 0h-7.86m-7.85 0h-7.85m-7.85 0h-7.86m-7.85 0h-7.84m-7.86 0h-3.92v-3.98m0-7.97v-7.98m0-7.96v-7.97m0-7.98v-7.96m0-7.97v-7.98m0-7.96v-7.97m0-7.98v-7.96m0-7.97v-7.98m0-7.96v-7.97m0-7.98v-7.96m0-7.97v-7.98m0-7.97V1560m0-7.98v-7.97m0-7.96v-7.98m0-7.97v-7.96m0-7.98v-7.97m0-7.96v-7.98m0-7.97v-7.96m0-7.98v-7.97m0-7.96v-7.98m0-7.97v-7.96m0-7.98v-7.97m0-7.96v-7.98m0-7.97v-7.96m0-7.98v-7.97m0-7.96v-7.98m0-7.97V1321m0-7.98v-7.97m0-7.96v-7.98m0-7.97v-7.97m0-7.96v-7.97m0-7.96v-7.98m0-7.97v-7.96m0-7.98v-7.97m0-7.97v-7.96m0-7.97v-7.97m0-7.96v-7.97m0-7.97v-7.96m0-7.97v-7.97m0-7.96v-7.97m0-7.97v-7.96m0-7.97v-7.97m0-7.96v-7.97m0-7.97v-7.96m0-7.97v-7.97m0-7.96v-7.97m0-7.97v-7.96m0-7.97v-7.97m0-7.96v-7.97m0-7.97v-7.96m0-7.97v-7.97m0-7.97v-7.95m0-7.97v-7.96m0-7.97v-7.97m0-7.96v-7.97m0-7.97v-7.97m0-7.95v-7.97m0-7.97v-7.95m0-7.97v-7.97m0-7.95v-4h3.92" stroke="#147eba" stroke-width="2" fill="none"/><use xlink:href="#e" transform="matrix(1,0,0,1,825.3786480427809,819.1641654912654) translate(127.36419753086419 12.444444444444446)"/><use xlink:href="#f" transform="matrix(1,0,0,1,825.3786480427809,819.1641654912654) translate(213.09259259259258 12.444444444444446)"/><use xlink:href="#m" transform="matrix(1,0,0,1,825.3786480427809,819.1641654912654) translate(254.44444444444446 12.444444444444446)"/><path d="M852.2 1343.18h339v361.93h-339z" fill="#147eba" fill-opacity=".13"/><path d="M852.2 1343.18h56v56h-56v-56z" stroke="#fff" stroke-opacity="0" fill="#147eba"/><path d="M895.58 1365.36c-.16-.17-.35-.25-.56-.25h-5.15v-5.57c-.03-2.54-.97-4.7-2.84-6.4-1.9-1.84-4.15-2.75-6.77-2.75-2.65 0-4.9.83-6.8 2.62-1.9 1.7-2.87 3.87-2.9 6.4v5.66h-5.15c-.24 0-.43.1-.6.26-.14.16-.2.33-.2.58v25.3c0 .4.34.78.8.78H895c.45 0 .8-.37.8-.8v-25.28c0-.2-.07-.38-.22-.54zm-23.47-5.9c.05-2.13.83-3.88 2.4-5.3 1.6-1.5 3.5-2.2 5.73-2.2 2.2 0 4.12.75 5.7 2.25 1.54 1.42 2.32 3.2 2.32 5.33v5.58h-16.17zm22.1 30.94h-28v-23.7h28z" stroke="#fff" stroke-opacity="0" fill="#fff"/><path d="M879.4 1380.5v6.23h1.6v-6.23c2.12-.4 3.62-2.2 3.63-4.35 0-2.43-1.98-4.4-4.42-4.43-2.2-.03-4.04 1.5-4.4 3.68-.42 2.4 1.2 4.68 3.6 5.1zm.8-7.17c.8 0 1.45.27 2 .83.56.55.83 1.2.83 2 0 1.54-1.2 2.8-2.75 2.8h-.07c-1.55.13-2.9-1.04-3.02-2.6-.12-1.56 1.05-2.92 2.6-3.03h.43z" stroke="#fff" stroke-opacity="0" fill="#fff"/><use xlink:href="#h" transform="matrix(1,0,0,1,923.1960253348135,1363.180303988945) translate(0 14.222222222222223)"/><use xlink:href="#i" transform="matrix(1,0,0,1,923.1960253348135,1363.180303988945) translate(64.14814814814815 14.222222222222223)"/><use xlink:href="#n" transform="matrix(1,0,0,1,923.1960253348135,1363.180303988945) translate(129.1358024691358 14.222222222222223)"/><use xlink:href="#k" transform="matrix(1,0,0,1,923.1960253348135,1363.180303988945) translate(0 35.55555555555556)"/><path d="M852.2 921.86h339v347.96h-339z" fill="#248814" fill-opacity=".13"/><path d="M852.2 921.86h56v56h-56v-56z" stroke="#fff" stroke-opacity="0" fill="#248814"/><path d="M895.58 944.03c-.16-.16-.35-.25-.56-.25h-5.15v-5.57c-.03-2.53-.97-4.7-2.84-6.4-1.9-1.83-4.15-2.74-6.77-2.74-2.65 0-4.9.83-6.8 2.62-1.9 1.7-2.87 3.87-2.9 6.4v5.66h-5.15c-.24 0-.43.1-.6.25-.14.16-.2.33-.2.57v25.3c0 .4.34.8.8.8H895c.45 0 .8-.4.8-.8v-25.3c0-.2-.07-.37-.22-.54zm-23.47-5.9c.05-2.13.83-3.87 2.4-5.3 1.6-1.5 3.5-2.2 5.73-2.2 2.2 0 4.12.76 5.7 2.25 1.54 1.42 2.32 3.2 2.32 5.33v5.58h-16.17zm22.1 30.95h-28v-23.72h28z" stroke="#fff" stroke-opacity="0" fill="#fff"/><path d="M879.4 959.17v6.24h1.6v-6.22c2.12-.4 3.62-2.2 3.63-4.35 0-2.43-1.98-4.4-4.42-4.43-2.2-.03-4.04 1.5-4.4 3.68-.42 2.4 1.2 4.68 3.6 5.1zm.8-7.16c.8 0 1.45.28 2 .83.56.56.83 1.22.83 2 0 1.54-1.2 2.8-2.75 2.82h-.07c-1.55.12-2.9-1.05-3.02-2.6-.12-1.57 1.05-2.94 2.6-3.04h.43z" stroke="#fff" stroke-opacity="0" fill="#fff"/><use xlink:href="#l" transform="matrix(1,0,0,1,923.1960253348135,941.8576744945478) translate(0 14.222222222222223)"/><use xlink:href="#i" transform="matrix(1,0,0,1,923.1960253348135,941.8576744945478) translate(58.17283950617284 14.222222222222223)"/><use xlink:href="#n" transform="matrix(1,0,0,1,923.1960253348135,941.8576744945478) translate(123.16049382716051 14.222222222222223)"/><use xlink:href="#k" transform="matrix(1,0,0,1,923.1960253348135,941.8576744945478) translate(0 35.55555555555556)"/><path d="M285.12 733.55a8 8 0 0 1 8-8h987.8a8 8 0 0 1 8 8v1039.83a8 8 0 0 1-8 8h-987.8a8 8 0 0 1-8-8z" fill="#fff" fill-opacity="0"/><path d="M342.5 725.55h32.93m32.93 0h32.93m32.9 0h32.94m32.93 0H573m32.92 0h32.93m32.92 0h32.93m32.93 0h32.92m32.93 0h32.93m32.94 0h32.92m32.93 0h32.9m32.94 0h32.93m32.92 0h32.92m32.93 0h32.92m32.93 0h32.93m32.93 0h16.46l1.25.1 1.22.3 1.15.47 1.07.65.96.82.8.94.67 1.07.48 1.17.3 1.22.1 1.25v16.24m0 32.5v32.48m0 32.5v32.5m0 32.5v32.48m0 32.5v32.5m0 32.5v32.48m0 32.5v32.5m0 32.5v32.48m0 32.5v32.5m0 32.5v32.48m0 32.5v32.5m0 32.5v32.48m0 32.5v32.5m0 32.5v32.48m0 32.5v32.5m0 32.5v32.48m0 32.5v16.24l-.1 1.25-.3 1.23-.48 1.16-.66 1.07-.82.94-.96.82-1.07.65-1.16.5-1.23.3-1.25.08h-16.46m-32.93 0h-32.93m-32.92 0h-32.93m-32.93 0h-32.92m-32.93 0h-32.93m-32.92 0H935.2m-32.94 0h-32.92m-32.93 0H803.5m-32.93 0h-32.92m-32.93 0h-32.93m-32.92 0h-32.93m-32.93 0h-32.93m-32.93 0H474.2m-32.9 0h-32.94m-32.93 0H342.5m-32.92 0h-16.46l-1.25-.1-1.23-.3-1.15-.47-1.08-.64-.96-.82-.8-.95-.67-1.08-.5-1.16-.28-1.22-.1-1.26v-16.24m0-32.5v-32.5m0-32.5v-32.48m0-32.5v-32.5m0-32.5v-32.48m0-32.5v-32.5m0-32.5v-32.48m0-32.5v-32.5m0-32.5v-32.48m0-32.5v-32.5m0-32.5v-32.48m0-32.5v-32.5m0-32.5v-32.48m0-32.5v-32.5m0-32.5V847.3m0-32.5v-32.5m0-32.5v-16.23l.1-1.25.3-1.23.47-1.16.64-1.06.82-.95.96-.83 1.06-.65 1.16-.48 1.23-.3 1.25-.1h16.46" stroke="#000" stroke-width="8" fill="none"/><use xlink:href="#o" transform="matrix(1,0,0,1,285.11712439320365,745.5465709901812) translate(366.17499999999995 14.4)"/><use xlink:href="#p" transform="matrix(1,0,0,1,285.11712439320365,745.5465709901812) translate(407.17499999999995 14.4)"/><use xlink:href="#q" transform="matrix(1,0,0,1,285.11712439320365,745.5465709901812) translate(503.025 14.4)"/><use xlink:href="#r" transform="matrix(1,0,0,1,285.11712439320365,745.5465709901812) translate(559.925 14.4)"/><path d="M397.1 1029.62a8 8 0 0 1 8-8h753.18a8 8 0 0 1 8 8v148.3a8 8 0 0 1-8 8H405.1a8 8 0 0 1-8-8z" fill="#fff" fill-opacity="0"/><path d="M401.47 1022.5l1.16-.5 1.22-.3 1.25-.1h4.52m6.02 0h9.04m6.03 0h9.05m6.02 0h9.04m6.03 0h9.04m6.03 0h9.04m6.02 0H500m6.02 0h9.04m6.03 0h9.03m6.02 0h9.04m6 0h9.05m6.03 0h9.04m6.02 0h9.04m6.03 0h9.04m6.03 0h9.04m6.03 0h9.04m6.03 0h9.03m6.03 0h9.04m6.02 0h9.04m6.03 0h9.03m6.02 0h9.04m6 0h9.05m6.03 0h9.04m6.02 0h9.04m6.02 0h9.04m6.03 0h9.04m6.03 0h9.04m6.02 0h9.03m6.03 0h9.04m6.02 0h9.04m6.03 0h9.02m6.03 0h9.04m6 0h9.05m6.03 0h9.04m6.02 0h9.04m6.02 0h9.04m6.03 0h9.04m6.03 0h9.04m6.02 0h9.03m6.03 0h9.04m6.02 0h9.04m6.02 0h9.04m6.03 0h9.04m6 0h9.05m6.03 0h9.03m6.04 0h9.04m6.02 0h9.04m6.03 0h9.04m6.03 0h9.04m6.02 0h9.03m6.03 0h4.52l1.25.1 1.22.3 1.16.5m3.5 3.48l.48 1.16.3 1.22.1 1.26v4.44m0 5.94v8.9m0 5.93v8.9m0 5.93v8.9m0 5.93v8.9m0 5.92v8.9m0 5.93v8.9m0 5.93v8.9m0 5.93v8.9m0 5.94v8.9m0 5.93v4.45l-.1 1.25-.3 1.22-.48 1.15m-3.5 3.5l-1.15.48-1.22.3-1.25.1h-4.52m-6.03 0h-9.04m-6.03 0h-9.04m-6.03 0h-9.03m-6.03 0h-9.04m-6.02 0h-9.04m-6.03 0h-9.02m-6.03 0h-9.04m-6 0h-9.05m-6.03 0h-9.04m-6.02 0h-9.04m-6.02 0h-9.04m-6.03 0H973m-6.03 0h-9.04m-6.02 0h-9.03m-6.03 0h-9.04m-6.02 0h-9.04m-6.02 0h-9.04m-6.03 0h-9.04m-6 0h-9.05m-6.03 0h-9.03m-6.04 0h-9.04m-6.02 0h-9.04m-6.03 0h-9.04m-6.03 0h-9.04m-6.02 0h-9.03m-6.03 0h-9.03m-6.02 0h-9.04m-6.02 0h-9.04m-6.03 0h-9.04m-6 0h-9.05m-6.02 0h-9.04m-6.04 0h-9.04m-6.02 0h-9.04m-6.03 0h-9.03m-6.03 0h-9.04m-6.02 0h-9.03m-6.03 0h-9.03m-6.02 0h-9.04m-6.02 0h-9.04m-6.03 0h-9.03m-6.03 0h-9.05m-6.02 0h-9.04m-6.04 0h-9.04m-6.02 0h-9.04m-6.02 0h-9.04m-6.03 0h-9.04m-6.02 0h-9.03m-6.02 0h-9.04m-6.02 0h-9.04m-6.02 0h-4.52l-1.25-.1-1.22-.3-1.16-.48m-3.5-3.5l-.48-1.15-.3-1.23-.1-1.25v-4.45m0-5.93v-8.9m0-5.93v-8.9m0-5.92v-8.9m0-5.93v-8.9m0-5.93v-8.9m0-5.93v-8.9m0-5.94v-8.9m0-5.93v-8.9m0-5.93v-8.9m0-5.94v-4.44l.1-1.26.3-1.22.47-1.16" stroke="#d86613" stroke-width="3" fill="none"/><path d="M753.7 1021.6h56v56.02h-56v-56z" stroke="#fff" stroke-opacity="0" fill="#d86613"/><path d="M773.36 1045.34l-1.13 1.14 2.33 2.33H761.7v1.62h12.86l-2.33 2.33 1.13 1.14 4.28-4.3-4.28-4.26zM801.7 1048.8h-12.9l2.34-2.32-1.13-1.14-4.26 4.28 4.27 4.27 1.14-1.15-2.33-2.33h12.9v-1.6zM780.88 1032.25v12.87h1.6v-12.87l2.34 2.33 1.14-1.14-4.27-4.27-4.3 4.27 1.15 1.13 2.33-2.32zM782.5 1066.98v-12.87h-1.62V1067l-2.33-2.33-1.13 1.14 4.27 4.26 4.26-4.27-1.14-1.14-2.33 2.32z" stroke="#fff" stroke-opacity="0" fill="#fff"/><use xlink:href="#s" transform="matrix(1,0,0,1,397.09856476264866,1092.6150210390292) translate(334.55 14.4)"/><use xlink:href="#t" transform="matrix(1,0,0,1,397.09856476264866,1092.6150210390292) translate(376.55 14.4)"/><path d="M397.1 1475.8a8 8 0 0 1 8-8h753.18a8 8 0 0 1 8 8v148.3a8 8 0 0 1-8 8H405.1a8 8 0 0 1-8-8z" fill="#fff" fill-opacity="0"/><path d="M401.47 1468.67l1.16-.48 1.22-.3 1.25-.1h4.52m6.02 0h9.04m6.03 0h9.05m6.02 0h9.04m6.03 0h9.04m6.03 0h9.04m6.02 0H500m6.02 0h9.04m6.03 0h9.03m6.02 0h9.04m6 0h9.05m6.03 0h9.04m6.02 0h9.04m6.03 0h9.04m6.03 0h9.04m6.03 0h9.04m6.03 0h9.03m6.03 0h9.04m6.02 0h9.04m6.03 0h9.03m6.02 0h9.04m6 0h9.05m6.03 0h9.04m6.02 0h9.04m6.02 0h9.04m6.03 0h9.04m6.03 0h9.04m6.02 0h9.03m6.03 0h9.04m6.02 0h9.04m6.03 0h9.02m6.03 0h9.04m6 0h9.05m6.03 0h9.04m6.02 0h9.04m6.02 0h9.04m6.03 0h9.04m6.03 0h9.04m6.02 0h9.03m6.03 0h9.04m6.02 0h9.04m6.02 0h9.04m6.03 0h9.04m6 0h9.05m6.03 0h9.03m6.04 0h9.04m6.02 0h9.04m6.03 0h9.04m6.03 0h9.04m6.02 0h9.03m6.03 0h4.52l1.25.1 1.22.3 1.16.47m3.5 3.5l.48 1.16.3 1.22.1 1.25v4.45m0 5.93v8.9m0 5.93v8.9m0 5.94v8.9m0 5.93v8.9m0 5.93v8.9m0 5.93v8.9m0 5.94v8.9m0 5.93v8.9m0 5.93v8.9m0 5.93v4.45l-.1 1.26-.3 1.22-.48 1.16m-3.5 3.5l-1.15.47-1.22.3-1.25.1h-4.52m-6.03 0h-9.04m-6.03 0h-9.04m-6.03 0h-9.03m-6.03 0h-9.04m-6.02 0h-9.04m-6.03 0h-9.02m-6.03 0h-9.04m-6 0h-9.05m-6.03 0h-9.04m-6.02 0h-9.04m-6.02 0h-9.04m-6.03 0H973m-6.03 0h-9.04m-6.02 0h-9.03m-6.03 0h-9.04m-6.02 0h-9.04m-6.02 0h-9.04m-6.03 0h-9.04m-6 0h-9.05m-6.03 0h-9.03m-6.04 0h-9.04m-6.02 0h-9.04m-6.03 0h-9.04m-6.03 0h-9.04m-6.02 0h-9.03m-6.03 0h-9.03m-6.02 0h-9.04m-6.02 0h-9.04m-6.03 0h-9.04m-6 0h-9.05m-6.02 0h-9.04m-6.04 0h-9.04m-6.02 0h-9.04m-6.03 0h-9.03m-6.03 0h-9.04m-6.02 0h-9.03m-6.03 0h-9.03m-6.02 0h-9.04m-6.02 0h-9.04m-6.03 0h-9.03m-6.03 0h-9.05m-6.02 0h-9.04m-6.04 0h-9.04m-6.02 0h-9.04m-6.02 0h-9.04m-6.03 0h-9.04m-6.02 0h-9.03m-6.02 0h-9.04m-6.02 0h-9.04m-6.02 0h-4.52l-1.25-.1-1.22-.3-1.16-.47m-3.5-3.5l-.48-1.15-.3-1.22-.1-1.25v-4.44m0-5.94v-8.9m0-5.92v-8.9m0-5.94v-8.9m0-5.93v-8.9m0-5.93v-8.9m0-5.93v-8.9m0-5.93v-8.9m0-5.93v-8.9m0-5.92v-8.9m0-5.93v-4.45l.1-1.25.3-1.22.47-1.16" stroke="#d86613" stroke-width="3" fill="none"/><path d="M753.7 1467.8h56v56h-56v-56z" stroke="#fff" stroke-opacity="0" fill="#d86613"/><path d="M773.36 1491.53l-1.13 1.13 2.33 2.34H761.7v1.6h12.86l-2.33 2.34 1.13 1.13 4.28-4.27-4.28-4.27zM801.7 1495h-12.9l2.34-2.34-1.13-1.13-4.26 4.27 4.27 4.27 1.14-1.13-2.33-2.34h12.9v-1.6zM780.88 1478.43v12.87h1.6v-12.87l2.34 2.33 1.14-1.13-4.27-4.28-4.3 4.28 1.15 1.13 2.33-2.33zM782.5 1513.17v-12.88h-1.62v12.87l-2.33-2.33-1.13 1.13 4.27 4.28 4.26-4.28-1.14-1.13-2.33 2.33z" stroke="#fff" stroke-opacity="0" fill="#fff"/><use xlink:href="#s" transform="matrix(1,0,0,1,397.0985647626487,1538.7994853403297) translate(334.55 14.4)"/><use xlink:href="#t" transform="matrix(1,0,0,1,397.0985647626487,1538.7994853403297) translate(376.55 14.4)"/><path d="M1448.53 799.16h392.63v940.08h-392.63z" fill="#fff" fill-opacity="0"/><path d="M1460.3 799.16h7.86m7.85 0h7.87m7.85 0h7.85m7.86 0h7.85m7.85 0h7.85m7.86 0h7.85m7.84 0h7.85m7.85 0h7.85m7.85 0h7.85m7.86 0h7.85m7.86 0h7.86m7.85 0h7.85m7.85 0h7.86m7.85 0h7.85m7.85 0h7.86m7.85 0h7.84m7.86 0h7.85m7.85 0h7.85m7.86 0h7.86m7.85 0h7.86m7.86 0h7.85m7.85 0h7.86m7.85 0h7.85m7.85 0h7.86m7.84 0h3.92v4m0 7.95v7.98m0 7.97V835m0 7.98v7.97m0 7.96v7.98m0 7.97v7.97m0 7.96v7.97m0 7.97v7.96m0 7.97v7.97m0 7.96v7.97m0 7.97v7.96m0 7.97v7.97m0 7.96v7.97m0 7.97v7.96m0 7.97v7.97m0 7.96v7.97m0 7.97v7.96m0 7.97v7.97m0 7.96v7.97m0 7.97v7.96m0 7.97v7.97m0 7.96v7.97m0 7.97v7.96m0 7.97v7.97m0 7.96v7.97m0 7.97v7.96m0 7.97v7.97m0 7.96v7.97m0 7.97v7.97m0 7.95v7.97m0 7.96v7.97m0 7.97v7.97m0 7.95v7.97m0 7.97v7.95m0 7.97v7.97m0 7.95v7.97m0 7.97v7.95m0 7.97v7.97m0 7.95v7.97m0 7.97v7.95m0 7.97v7.97m0 7.95v7.97m0 7.97v7.95m0 7.97v7.97m0 7.95v7.97m0 7.97v7.95m0 7.97v7.97m0 7.95v7.97m0 7.97v7.95m0 7.97v7.97m0 7.95v7.97m0 7.97v7.96m0 7.96v7.97m0 7.95v7.97m0 7.97v7.96m0 7.96v7.97m0 7.96v7.96m0 7.97v7.96m0 7.96v7.97m0 7.96v3.98h-3.92m-7.86 0h-7.85m-7.85 0h-7.85m-7.86 0h-7.85m-7.85 0h-7.85m-7.86 0h-7.85m-7.84 0H1743m-7.85 0h-7.85m-7.85 0h-7.86m-7.86 0h-7.85m-7.86 0h-7.86m-7.85 0h-7.85m-7.85 0h-7.86m-7.85 0h-7.85m-7.86 0h-7.84m-7.85 0h-7.84m-7.86 0h-7.85m-7.85 0h-7.85m-7.86 0h-7.86m-7.85 0h-7.86m-7.86 0h-7.85m-7.85 0h-7.86m-7.85 0h-7.85m-7.85 0H1476m-7.84 0h-7.85m-7.84 0h-3.93v-3.98m0-7.97v-7.98m0-7.96v-7.97m0-7.98v-7.96m0-7.97v-7.98m0-7.96v-7.97m0-7.98v-7.96m0-7.97v-7.98m0-7.96v-7.97m0-7.98v-7.96m0-7.97v-7.98m0-7.97V1560m0-7.98v-7.97m0-7.96v-7.98m0-7.97v-7.96m0-7.98v-7.97m0-7.96v-7.98m0-7.97v-7.96m0-7.98v-7.97m0-7.96v-7.98m0-7.97v-7.96m0-7.98v-7.97m0-7.96v-7.98m0-7.97v-7.96m0-7.98v-7.97m0-7.96v-7.98m0-7.97V1321m0-7.98v-7.97m0-7.96v-7.98m0-7.97v-7.97m0-7.96v-7.97m0-7.96v-7.98m0-7.97v-7.96m0-7.98v-7.97m0-7.97v-7.96m0-7.97v-7.97m0-7.96v-7.97m0-7.97v-7.96m0-7.97v-7.97m0-7.96v-7.97m0-7.97v-7.96m0-7.97v-7.97m0-7.96v-7.97m0-7.97v-7.96m0-7.97v-7.97m0-7.96v-7.97m0-7.97v-7.96m0-7.97v-7.97m0-7.96v-7.97m0-7.97v-7.96m0-7.97v-7.97m0-7.97v-7.95m0-7.97v-7.96m0-7.97v-7.97m0-7.96v-7.97m0-7.97v-7.97m0-7.95v-7.97m0-7.97v-7.95m0-7.97v-7.97m0-7.95v-4h3.93" stroke="#147eba" stroke-width="2" fill="none"/><use xlink:href="#e" transform="matrix(1,0,0,1,1448.529626335277,819.1641654912654) translate(127.36419753086419 12.444444444444446)"/><use xlink:href="#f" transform="matrix(1,0,0,1,1448.529626335277,819.1641654912654) translate(213.09259259259258 12.444444444444446)"/><use xlink:href="#g" transform="matrix(1,0,0,1,1448.529626335277,819.1641654912654) translate(254.44444444444446 12.444444444444446)"/><path d="M1475.35 1343.18h339v361.93h-339z" fill="#147eba" fill-opacity=".13"/><path d="M1475.35 1343.18h56v56h-56v-56z" stroke="#fff" stroke-opacity="0" fill="#147eba"/><path d="M1518.73 1365.36c-.16-.17-.34-.25-.56-.25h-5.15v-5.57c-.03-2.54-.97-4.7-2.84-6.4-1.9-1.84-4.15-2.75-6.77-2.75-2.64 0-4.9.83-6.8 2.62-1.9 1.7-2.86 3.87-2.9 6.4v5.66h-5.14c-.25 0-.44.1-.6.26-.15.16-.2.33-.2.58v25.3c0 .4.33.78.8.78h29.58c.46 0 .8-.37.8-.8v-25.28c0-.2-.06-.38-.2-.54zm-23.46-5.9c.03-2.13.8-3.88 2.37-5.3 1.62-1.5 3.52-2.2 5.74-2.2 2.2 0 4.12.75 5.7 2.25 1.54 1.42 2.32 3.2 2.32 5.33v5.58h-16.17zm22.1 30.94h-28.03v-23.7h28.02z" stroke="#fff" stroke-opacity="0" fill="#fff"/><path d="M1502.54 1380.5v6.23h1.6v-6.23c2.13-.4 3.63-2.2 3.64-4.35 0-2.43-1.98-4.4-4.42-4.43-2.2-.03-4.05 1.5-4.42 3.68-.4 2.4 1.2 4.68 3.6 5.1zm.82-7.17c.8 0 1.45.27 2 .83.55.55.83 1.2.82 2 0 1.54-1.2 2.8-2.75 2.8h-.07c-1.55.13-2.92-1.04-3.03-2.6-.12-1.56 1.05-2.92 2.6-3.03h.43z" stroke="#fff" stroke-opacity="0" fill="#fff"/><use xlink:href="#h" transform="matrix(1,0,0,1,1546.3470036273095,1363.180303988945) translate(0 14.222222222222223)"/><use xlink:href="#i" transform="matrix(1,0,0,1,1546.3470036273095,1363.180303988945) translate(64.14814814814815 14.222222222222223)"/><use xlink:href="#j" transform="matrix(1,0,0,1,1546.3470036273095,1363.180303988945) translate(129.1358024691358 14.222222222222223)"/><use xlink:href="#k" transform="matrix(1,0,0,1,1546.3470036273095,1363.180303988945) translate(0 35.55555555555556)"/><path d="M1475.35 921.86h339v347.96h-339z" fill="#248814" fill-opacity=".13"/><path d="M1475.35 921.86h56v56h-56v-56z" stroke="#fff" stroke-opacity="0" fill="#248814"/><path d="M1518.73 944.03c-.16-.16-.34-.25-.56-.25h-5.15v-5.57c-.03-2.53-.97-4.7-2.84-6.4-1.9-1.83-4.15-2.74-6.77-2.74-2.64 0-4.9.83-6.8 2.62-1.9 1.7-2.86 3.87-2.9 6.4v5.66h-5.14c-.25 0-.44.1-.6.25-.15.16-.2.33-.2.57v25.3c0 .4.33.8.8.8h29.58c.46 0 .8-.4.8-.8v-25.3c0-.2-.06-.37-.2-.54zm-23.46-5.9c.03-2.13.8-3.87 2.37-5.3 1.62-1.5 3.52-2.2 5.74-2.2 2.2 0 4.12.76 5.7 2.25 1.54 1.42 2.32 3.2 2.32 5.33v5.58h-16.17zm22.1 30.95h-28.03v-23.72h28.02z" stroke="#fff" stroke-opacity="0" fill="#fff"/><path d="M1502.54 959.17v6.24h1.6v-6.22c2.13-.4 3.63-2.2 3.64-4.35 0-2.43-1.98-4.4-4.42-4.43-2.2-.03-4.05 1.5-4.42 3.68-.4 2.4 1.2 4.68 3.6 5.1zm.82-7.16c.8 0 1.45.28 2 .83.55.56.83 1.22.82 2 0 1.54-1.2 2.8-2.75 2.82h-.07c-1.55.12-2.92-1.05-3.03-2.6-.12-1.57 1.05-2.94 2.6-3.04h.43z" stroke="#fff" stroke-opacity="0" fill="#fff"/><use xlink:href="#l" transform="matrix(1,0,0,1,1546.3470036273095,941.8576744945481) translate(0 14.222222222222223)"/><use xlink:href="#i" transform="matrix(1,0,0,1,1546.3470036273095,941.8576744945481) translate(58.17283950617284 14.222222222222223)"/><use xlink:href="#j" transform="matrix(1,0,0,1,1546.3470036273095,941.8576744945481) translate(123.16049382716051 14.222222222222223)"/><use xlink:href="#k" transform="matrix(1,0,0,1,1546.3470036273095,941.8576744945481) translate(0 35.55555555555556)"/><path d="M1929.03 799.16h392.63v940.08h-392.63z" fill="#fff" fill-opacity="0"/><path d="M1940.8 799.16h7.86m7.85 0h7.86m7.86 0h7.85m7.85 0h7.86m7.85 0h7.85m7.85 0h7.86m7.84 0h7.85m7.84 0h7.86m7.85 0h7.85m7.86 0h7.85m7.86 0h7.85m7.87 0h7.85m7.85 0h7.85m7.86 0h7.85m7.85 0h7.85m7.86 0h7.84m7.85 0h7.85m7.85 0h7.85m7.85 0h7.86m7.85 0h7.86m7.85 0h7.87m7.85 0h7.85m7.86 0h7.85m7.85 0h7.85m7.86 0h3.92v4m0 7.95v7.98m0 7.97V835m0 7.98v7.97m0 7.96v7.98m0 7.97v7.97m0 7.96v7.97m0 7.97v7.96m0 7.97v7.97m0 7.96v7.97m0 7.97v7.96m0 7.97v7.97m0 7.96v7.97m0 7.97v7.96m0 7.97v7.97m0 7.96v7.97m0 7.97v7.96m0 7.97v7.97m0 7.96v7.97m0 7.97v7.96m0 7.97v7.97m0 7.96v7.97m0 7.97v7.96m0 7.97v7.97m0 7.96v7.97m0 7.97v7.96m0 7.97v7.97m0 7.96v7.97m0 7.97v7.97m0 7.95v7.97m0 7.96v7.97m0 7.97v7.97m0 7.95v7.97m0 7.97v7.95m0 7.97v7.97m0 7.95v7.97m0 7.97v7.95m0 7.97v7.97m0 7.95v7.97m0 7.97v7.95m0 7.97v7.97m0 7.95v7.97m0 7.97v7.95m0 7.97v7.97m0 7.95v7.97m0 7.97v7.95m0 7.97v7.97m0 7.95v7.97m0 7.97v7.95m0 7.97v7.97m0 7.95v7.97m0 7.97v7.96m0 7.96v7.97m0 7.95v7.97m0 7.97v7.96m0 7.96v7.97m0 7.96v7.96m0 7.97v7.96m0 7.96v7.97m0 7.96v3.98h-3.92m-7.86 0h-7.85m-7.85 0h-7.86m-7.85 0h-7.85m-7.85 0h-7.86m-7.84 0h-7.85m-7.84 0h-7.86m-7.85 0h-7.85m-7.86 0h-7.85m-7.86 0h-7.85m-7.87 0h-7.85m-7.85 0h-7.85m-7.86 0h-7.85m-7.85 0h-7.85m-7.86 0h-7.84m-7.85 0h-7.84m-7.86 0h-7.85m-7.85 0h-7.86m-7.85 0h-7.86m-7.85 0h-7.87m-7.85 0h-7.85m-7.86 0h-7.85m-7.85 0h-7.85m-7.86 0h-7.85m-7.84 0h-7.85m-7.85 0h-3.92v-3.98m0-7.97v-7.98m0-7.96v-7.97m0-7.98v-7.96m0-7.97v-7.98m0-7.96v-7.97m0-7.98v-7.96m0-7.97v-7.98m0-7.96v-7.97m0-7.98v-7.96m0-7.97v-7.98m0-7.97V1560m0-7.98v-7.97m0-7.96v-7.98m0-7.97v-7.96m0-7.98v-7.97m0-7.96v-7.98m0-7.97v-7.96m0-7.98v-7.97m0-7.96v-7.98m0-7.97v-7.96m0-7.98v-7.97m0-7.96v-7.98m0-7.97v-7.96m0-7.98v-7.97m0-7.96v-7.98m0-7.97V1321m0-7.98v-7.97m0-7.96v-7.98m0-7.97v-7.97m0-7.96v-7.97m0-7.96v-7.98m0-7.97v-7.96m0-7.98v-7.97m0-7.97v-7.96m0-7.97v-7.97m0-7.96v-7.97m0-7.97v-7.96m0-7.97v-7.97m0-7.96v-7.97m0-7.97v-7.96m0-7.97v-7.97m0-7.96v-7.97m0-7.97v-7.96m0-7.97v-7.97m0-7.96v-7.97m0-7.97v-7.96m0-7.97v-7.97m0-7.96v-7.97m0-7.97v-7.96m0-7.97v-7.97m0-7.97v-7.95m0-7.97v-7.96m0-7.97v-7.97m0-7.96v-7.97m0-7.97v-7.97m0-7.95v-7.97m0-7.97v-7.95m0-7.97v-7.97m0-7.95v-4h3.92" stroke="#147eba" stroke-width="2" fill="none"/><use xlink:href="#e" transform="matrix(1,0,0,1,1929.0272972977273,819.1641654912654) translate(127.36419753086419 12.444444444444446)"/><use xlink:href="#f" transform="matrix(1,0,0,1,1929.0272972977273,819.1641654912654) translate(213.09259259259258 12.444444444444446)"/><use xlink:href="#g" transform="matrix(1,0,0,1,1929.0272972977273,819.1641654912654) translate(254.44444444444446 12.444444444444446)"/><path d="M1955.85 1343.18h339v361.93h-339z" fill="#147eba" fill-opacity=".13"/><path d="M1955.85 1343.18h56v56h-56v-56z" stroke="#fff" stroke-opacity="0" fill="#147eba"/><path d="M1999.23 1365.36c-.16-.17-.35-.25-.57-.25h-5.14v-5.57c-.03-2.54-.97-4.7-2.84-6.4-1.9-1.84-4.15-2.75-6.77-2.75-2.64 0-4.9.83-6.8 2.62-1.9 1.7-2.87 3.87-2.9 6.4v5.66h-5.14c-.25 0-.44.1-.6.26-.15.16-.22.33-.22.58v25.3c0 .4.35.78.82.78h29.57c.47 0 .8-.37.8-.8v-25.28c0-.2-.05-.38-.2-.54zm-23.47-5.9c.04-2.13.82-3.88 2.38-5.3 1.62-1.5 3.52-2.2 5.74-2.2 2.2 0 4.1.75 5.7 2.25 1.54 1.42 2.32 3.2 2.32 5.33v5.58h-16.17zm22.1 30.94h-28.02v-23.7h28z" stroke="#fff" stroke-opacity="0" fill="#fff"/><path d="M1983.04 1380.5v6.23h1.6v-6.23c2.13-.4 3.63-2.2 3.64-4.35 0-2.43-1.98-4.4-4.42-4.43-2.2-.03-4.05 1.5-4.42 3.68-.4 2.4 1.2 4.68 3.6 5.1zm.82-7.17c.78 0 1.44.27 2 .83.55.55.82 1.2.8 2 .03 1.54-1.2 2.8-2.74 2.8h-.06c-1.56.13-2.92-1.04-3.03-2.6-.12-1.56 1.05-2.92 2.6-3.03h.43z" stroke="#fff" stroke-opacity="0" fill="#fff"/><use xlink:href="#h" transform="matrix(1,0,0,1,2026.84467458976,1363.180303988945) translate(0 14.222222222222223)"/><use xlink:href="#i" transform="matrix(1,0,0,1,2026.84467458976,1363.180303988945) translate(64.14814814814815 14.222222222222223)"/><use xlink:href="#j" transform="matrix(1,0,0,1,2026.84467458976,1363.180303988945) translate(129.1358024691358 14.222222222222223)"/><use xlink:href="#k" transform="matrix(1,0,0,1,2026.84467458976,1363.180303988945) translate(0 35.55555555555556)"/><path d="M1955.85 921.86h339v347.96h-339z" fill="#248814" fill-opacity=".13"/><path d="M1955.85 921.86h56v56h-56v-56z" stroke="#fff" stroke-opacity="0" fill="#248814"/><path d="M1999.23 944.03c-.16-.16-.35-.25-.57-.25h-5.14v-5.57c-.03-2.53-.97-4.7-2.84-6.4-1.9-1.83-4.15-2.74-6.77-2.74-2.64 0-4.9.83-6.8 2.62-1.9 1.7-2.87 3.87-2.9 6.4v5.66h-5.14c-.25 0-.44.1-.6.25-.15.16-.22.33-.22.57v25.3c0 .4.35.8.82.8h29.57c.47 0 .8-.4.8-.8v-25.3c0-.2-.05-.37-.2-.54zm-23.47-5.9c.04-2.13.82-3.87 2.38-5.3 1.62-1.5 3.52-2.2 5.74-2.2 2.2 0 4.1.76 5.7 2.25 1.54 1.42 2.32 3.2 2.32 5.33v5.58h-16.17zm22.1 30.95h-28.02v-23.72h28z" stroke="#fff" stroke-opacity="0" fill="#fff"/><path d="M1983.04 959.17v6.24h1.6v-6.22c2.13-.4 3.63-2.2 3.64-4.35 0-2.43-1.98-4.4-4.42-4.43-2.2-.03-4.05 1.5-4.42 3.68-.4 2.4 1.2 4.68 3.6 5.1zm.82-7.16c.78 0 1.44.28 2 .83.55.56.82 1.22.8 2 .03 1.54-1.2 2.8-2.74 2.82h-.06c-1.56.12-2.92-1.05-3.03-2.6-.12-1.57 1.05-2.94 2.6-3.04h.43z" stroke="#fff" stroke-opacity="0" fill="#fff"/><use xlink:href="#l" transform="matrix(1,0,0,1,2026.84467458976,941.8576744945478) translate(0 14.222222222222223)"/><use xlink:href="#i" transform="matrix(1,0,0,1,2026.84467458976,941.8576744945478) translate(58.17283950617284 14.222222222222223)"/><use xlink:href="#j" transform="matrix(1,0,0,1,2026.84467458976,941.8576744945478) translate(123.16049382716051 14.222222222222223)"/><use xlink:href="#k" transform="matrix(1,0,0,1,2026.84467458976,941.8576744945478) translate(0 35.55555555555556)"/><path d="M1388.77 733.55a8 8 0 0 1 8-8h987.8a8 8 0 0 1 8 8v1039.83a8 8 0 0 1-8 8h-987.8a8 8 0 0 1-8-8z" fill="#fff" fill-opacity="0"/><path d="M1446.16 725.55h32.92m32.93 0h32.94m32.92 0h32.93m32.92 0h32.92m32.93 0h32.93m32.92 0h32.93m32.93 0h32.92m32.93 0h32.93m32.92 0h32.93m32.94 0h32.92m32.93 0h32.92m32.92 0h32.93m32.93 0h32.92m32.93 0h32.93m32.92 0h16.47l1.25.1 1.22.3 1.16.47 1.07.65.95.82.82.94.66 1.07.48 1.17.3 1.22.1 1.25v16.24m0 32.5v32.48m0 32.5v32.5m0 32.5v32.48m0 32.5v32.5m0 32.5v32.48m0 32.5v32.5m0 32.5v32.48m0 32.5v32.5m0 32.5v32.48m0 32.5v32.5m0 32.5v32.48m0 32.5v32.5m0 32.5v32.48m0 32.5v32.5m0 32.5v32.48m0 32.5v16.24l-.1 1.25-.3 1.23-.48 1.16-.66 1.07-.82.94-.95.82-1.07.65-1.16.5-1.22.3-1.25.08h-16.47m-32.92 0h-32.93m-32.93 0h-32.92m-32.93 0h-32.93m-32.92 0h-32.93m-32.94 0h-32.92m-32.93 0H1973m-32.92 0h-32.93m-32.93 0h-32.92m-32.93 0h-32.93m-32.92 0h-32.93m-32.93 0h-32.92m-32.93 0h-32.94m-32.92 0H1512m-32.92 0h-32.92m-32.93 0h-16.46l-1.26-.1-1.2-.3-1.17-.47-1.07-.64-.95-.82-.8-.95-.66-1.08-.48-1.16-.3-1.22-.1-1.26v-16.24m0-32.5v-32.5m0-32.5v-32.48m0-32.5v-32.5m0-32.5v-32.48m0-32.5v-32.5m0-32.5v-32.48m0-32.5v-32.5m0-32.5v-32.48m0-32.5v-32.5m0-32.5v-32.48m0-32.5v-32.5m0-32.5v-32.48m0-32.5v-32.5m0-32.5V847.3m0-32.5v-32.5m0-32.5v-16.23l.1-1.25.3-1.23.48-1.16.65-1.06.8-.95.96-.83 1.07-.65 1.16-.48 1.2-.3 1.27-.1h16.46" stroke="#fc9432" stroke-width="8" fill="none"/><use xlink:href="#u" transform="matrix(1,0,0,1,1388.7657736481501,745.5465709901812) translate(397.40000000000003 14.399999999999995)"/><use xlink:href="#v" transform="matrix(1,0,0,1,1388.7657736481501,745.5465709901812) translate(439.35 14.399999999999995)"/><use xlink:href="#w" transform="matrix(1,0,0,1,1388.7657736481501,745.5465709901812) translate(528.75 14.399999999999995)"/><path d="M1515.35 1482.94a8 8 0 0 1 8-8h744a8 8 0 0 1 8 8v130.4a8 8 0 0 1-8 8h-744a8 8 0 0 1-8-8z" fill="#fff" fill-opacity="0"/><path d="M1541.35 1474.94h12m12 0h12m12 0h12m12 0h12m12 0h12m12 0h12m12 0h12m12 0h12m12 0h12m12 0h12m12 0h12m12 0h12m12 0h12m12 0h12m12 0h12m12 0h12m12 0h12m12 0h12m12 0h12m12 0h12m12 0h12m12 0h12m12 0h12m12 0h12m12 0h12m12 0h12m12 0h12m12 0h12m12 0h12m12 0h12m12 0h6l1.25.1 1.22.3 1.16.47 1.07.67.95.8.82.97.65 1.07.5 1.17.28 1.22.1 1.24v6.52m0 13.04v13.04m0 13.04v13.04m0 13.04v13.04m0 13.03v13.04m0 13.04v6.53l-.1 1.26-.3 1.2-.47 1.16-.66 1.08-.82.95-.95.8-1.07.66-1.16.48-1.22.3-1.25.1h-6m-12 0h-12m-12 0h-12m-12 0h-12m-12 0h-12m-12 0h-12m-12 0h-12m-12 0h-12m-12 0h-12m-12 0h-12m-12 0h-12m-12 0h-12m-12 0h-12m-12 0h-12m-12 0h-12m-12 0h-12m-12 0h-12m-12 0h-12m-12 0h-12m-12 0h-12m-12 0h-12m-12 0h-12m-12 0h-12m-12 0h-12m-12 0h-12m-12 0h-12m-12 0h-12m-12 0h-12m-12 0h-12m-12 0h-12m-12 0h-12m-12 0h-6l-1.25-.1-1.22-.3-1.17-.48-1.06-.65-.95-.8-.83-.96-.65-1.08-.48-1.15-.3-1.2-.1-1.27v-6.52m0-13.03v-13.04m0-13.03v-13.04m0-13.04v-13.04m0-13.04v-13.04m0-13.04v-6.52l.1-1.25.3-1.23.48-1.16.65-1.06.82-.96.94-.8 1.07-.67 1.17-.47 1.23-.3 1.25-.1h6" stroke="#cc4e00" stroke-width="3" fill="none"/><use xlink:href="#x" transform="matrix(1,0,0,1,1515.3470036273095,1494.9397550873637) translate(380 14.4)"/><use xlink:href="#y" transform="matrix(1,0,0,1,1515.3470036273095,1494.9397550873637) translate(380 36)"/><use xlink:href="#z" transform="matrix(1,0,0,1,1515.3470036273095,1494.9397550873637) translate(296.375 57.6)"/><use xlink:href="#A" transform="matrix(1,0,0,1,1515.3470036273095,1494.9397550873637) translate(385.775 57.6)"/><path d="M903.9 94.77a8 8 0 0 1 8-8h836.74a8 8 0 0 1 8 8v25.16a8 8 0 0 1-8 8H911.9a8 8 0 0 1-8-8z" stroke="#000" stroke-opacity="0" stroke-width="2" fill="#fff" fill-opacity="0"/><use xlink:href="#B" transform="matrix(1,0,0,1,907.8856513339001,90.77068629775232) translate(136.52790123456793 25.782777777777778)"/><use xlink:href="#C" transform="matrix(1,0,0,1,907.8856513339001,90.77068629775232) translate(203.3945679012346 25.782777777777778)"/><use xlink:href="#D" transform="matrix(1,0,0,1,907.8856513339001,90.77068629775232) translate(264.50691358024693 25.782777777777778)"/><use xlink:href="#E" transform="matrix(1,0,0,1,907.8856513339001,90.77068629775232) translate(345.9414814814815 25.782777777777778)"/><use xlink:href="#F" transform="matrix(1,0,0,1,907.8856513339001,90.77068629775232) translate(499.99703703703705 25.782777777777778)"/><use xlink:href="#G" transform="matrix(1,0,0,1,907.8856513339001,90.77068629775232) translate(610.4217283950618 25.782777777777778)"/><path d="M1162.52 126.58h340.63M1162.55 126.58h-1.03M1503.13 126.58h1.02" stroke="#a9afb8" stroke-width="2" fill="none"/><path d="M903.9 135.93a8 8 0 0 1 8-8h837.7a8 8 0 0 1 8 8v2.84a8 8 0 0 1-8 8H911.9a8 8 0 0 1-8-8z" stroke="#000" stroke-opacity="0" stroke-width="2" fill="#fff" fill-opacity="0"/><use xlink:href="#H" transform="matrix(1,0,0,1,907.8856513339006,131.92591025465111) translate(328.56241769547324 14.917037037037037)"/><use xlink:href="#I" transform="matrix(1,0,0,1,907.8856513339006,131.92591025465111) translate(420.1702366255144 14.917037037037037)"/><use xlink:href="#J" transform="matrix(1,0,0,1,907.8856513339006,131.92591025465111) translate(432.6197222222222 14.917037037037037)"/><use xlink:href="#K" transform="matrix(1,0,0,1,907.8856513339006,131.92591025465111) translate(465.71920781893004 14.917037037037037)"/><use xlink:href="#L" transform="matrix(1,0,0,1,907.8856513339006,131.92591025465111) translate(490.0658127572017 14.917037037037037)"/><path d="M553.38 1128.02H489v-64.37h64.38zm-61.02-3.35h57.67V1067h-57.67z" stroke="#fff" stroke-opacity="0" fill="#d86613"/><path d="M498.2 1055.84h3.35v9.48h-3.34v-9.48zM508.67 1055.84H512v9.48h-3.33v-9.48zM519.13 1055.84h3.34v9.48h-3.34v-9.48zM529.6 1055.84h3.33v9.48h-3.33v-9.48zM540.07 1055.84h3.33v9.48h-3.33v-9.48zM498.2 1126.35h3.35v9.5h-3.34v-9.5zM508.67 1126.35H512v9.5h-3.33v-9.5zM519.13 1126.35h3.34v9.5h-3.34v-9.5zM529.6 1126.35h3.33v9.5h-3.33v-9.5zM540.07 1126.35h3.33v9.5h-3.33v-9.5zM551.7 1073.25h9.5v3.34h-9.5v-3.35zM551.7 1083.7h9.5v3.34h-9.5v-3.34zM551.7 1094.17h9.5v3.33h-9.5v-3.33zM551.7 1104.64h9.5v3.33h-9.5v-3.33zM551.7 1115.1h9.5v3.32h-9.5v-3.33zM481.2 1073.25h9.48v3.34h-9.48v-3.35zM481.2 1083.7h9.48v3.34h-9.48v-3.34zM481.2 1094.17h9.48v3.33h-9.48v-3.33zM481.2 1104.64h9.48v3.33h-9.48v-3.33zM481.2 1115.1h9.48v3.32h-9.48v-3.33z" stroke="#fff" stroke-opacity="0" fill="#d86613"/><use xlink:href="#M" transform="matrix(1,0,0,1,451.19835437236304,1144.8362239903884) translate(36 14.4)"/><path d="M1085.37 1128.02H1021v-64.37h64.37zm-61.02-3.35h57.67V1067h-57.67z" stroke="#fff" stroke-opacity="0" fill="#d86613"/><path d="M1030.2 1055.84h3.34v9.48h-3.34v-9.48zM1040.65 1055.84h3.34v9.48h-3.35v-9.48zM1051.12 1055.84h3.33v9.48h-3.33v-9.48zM1061.6 1055.84h3.32v9.48h-3.33v-9.48zM1072.05 1055.84h3.34v9.48h-3.35v-9.48zM1030.2 1126.35h3.34v9.5h-3.34v-9.5zM1040.65 1126.35h3.34v9.5h-3.35v-9.5zM1051.12 1126.35h3.33v9.5h-3.33v-9.5zM1061.6 1126.35h3.32v9.5h-3.33v-9.5zM1072.05 1126.35h3.34v9.5h-3.35v-9.5zM1083.7 1073.25h9.5v3.34h-9.5v-3.35zM1083.7 1083.7h9.5v3.34h-9.5v-3.34zM1083.7 1094.17h9.5v3.33h-9.5v-3.33zM1083.7 1104.64h9.5v3.33h-9.5v-3.33zM1083.7 1115.1h9.5v3.32h-9.5v-3.33zM1013.2 1073.25h9.47v3.34h-9.48v-3.35zM1013.2 1083.7h9.47v3.34h-9.48v-3.34zM1013.2 1094.17h9.47v3.33h-9.48v-3.33zM1013.2 1104.64h9.47v3.33h-9.48v-3.33zM1013.2 1115.1h9.47v3.32h-9.48v-3.33z" stroke="#fff" stroke-opacity="0" fill="#d86613"/><use xlink:href="#M" transform="matrix(1,0,0,1,983.1855260151117,1144.8362239903881) translate(36 14.4)"/><path d="M553.38 1578.1H489v-64.36h64.38zm-61.02-3.34h57.67v-57.67h-57.67z" stroke="#fff" stroke-opacity="0" fill="#d86613"/><path d="M498.2 1505.93h3.35v9.48h-3.34v-9.47zM508.67 1505.93H512v9.48h-3.33v-9.47zM519.13 1505.93h3.34v9.48h-3.34v-9.47zM529.6 1505.93h3.33v9.48h-3.33v-9.47zM540.07 1505.93h3.33v9.48h-3.33v-9.47zM498.2 1576.44h3.35v9.5h-3.34v-9.5zM508.67 1576.44H512v9.5h-3.33v-9.5zM519.13 1576.44h3.34v9.5h-3.34v-9.5zM529.6 1576.44h3.33v9.5h-3.33v-9.5zM540.07 1576.44h3.33v9.5h-3.33v-9.5zM551.7 1523.34h9.5v3.34h-9.5v-3.34zM551.7 1533.8h9.5v3.33h-9.5v-3.34zM551.7 1544.26h9.5v3.33h-9.5v-3.34zM551.7 1554.73h9.5v3.33h-9.5v-3.33zM551.7 1565.18h9.5v3.33h-9.5v-3.32zM481.2 1523.34h9.48v3.34h-9.48v-3.34zM481.2 1533.8h9.48v3.33h-9.48v-3.34zM481.2 1544.26h9.48v3.33h-9.48v-3.34zM481.2 1554.73h9.48v3.33h-9.48v-3.33zM481.2 1565.18h9.48v3.33h-9.48v-3.32z" stroke="#fff" stroke-opacity="0" fill="#d86613"/><use xlink:href="#M" transform="matrix(1,0,0,1,451.19835437236304,1594.9275737350952) translate(36 14.4)"/><path d="M1085.37 1576.5H1021v-64.37h64.37zm-61.02-3.35h57.67v-57.67h-57.67z" stroke="#fff" stroke-opacity="0" fill="#d86613"/><path d="M1030.2 1504.3h3.34v9.5h-3.34v-9.5zM1040.65 1504.3h3.34v9.5h-3.35v-9.5zM1051.12 1504.3h3.33v9.5h-3.33v-9.5zM1061.6 1504.3h3.32v9.5h-3.33v-9.5zM1072.05 1504.3h3.34v9.5h-3.35v-9.5zM1030.2 1574.83h3.34v9.48h-3.34v-9.47zM1040.65 1574.83h3.34v9.48h-3.35v-9.47zM1051.12 1574.83h3.33v9.48h-3.33v-9.47zM1061.6 1574.83h3.32v9.48h-3.33v-9.47zM1072.05 1574.83h3.34v9.48h-3.35v-9.47zM1083.7 1521.73h9.5v3.33h-9.5v-3.33zM1083.7 1532.18h9.5v3.33h-9.5v-3.32zM1083.7 1542.65h9.5v3.33h-9.5v-3.33zM1083.7 1553.1h9.5v3.35h-9.5v-3.34zM1083.7 1563.56h9.5v3.34h-9.5v-3.34zM1013.2 1521.73h9.47v3.33h-9.48v-3.33zM1013.2 1532.18h9.47v3.33h-9.48v-3.32zM1013.2 1542.65h9.47v3.33h-9.48v-3.33zM1013.2 1553.1h9.47v3.35h-9.48v-3.34zM1013.2 1563.56h9.47v3.34h-9.48v-3.34z" stroke="#fff" stroke-opacity="0" fill="#d86613"/><use xlink:href="#M" transform="matrix(1,0,0,1,983.1855260151117,1593.3126470355826) translate(36 14.4)"/><path d="M1657.03 1578.1h-64.37v-64.36h64.37zm-61.02-3.34h57.68v-57.67H1596z" stroke="#fff" stroke-opacity="0" fill="#d86613"/><path d="M1601.86 1505.93h3.34v9.48h-3.34v-9.47zM1612.3 1505.93h3.35v9.48h-3.34v-9.47zM1622.78 1505.93h3.33v9.48h-3.32v-9.47zM1633.25 1505.93h3.33v9.48h-3.33v-9.47zM1643.7 1505.93h3.35v9.48h-3.34v-9.47zM1601.86 1576.44h3.34v9.5h-3.34v-9.5zM1612.3 1576.44h3.35v9.5h-3.34v-9.5zM1622.78 1576.44h3.33v9.5h-3.32v-9.5zM1633.25 1576.44h3.33v9.5h-3.33v-9.5zM1643.7 1576.44h3.35v9.5h-3.34v-9.5zM1655.36 1523.34h9.5v3.34h-9.5v-3.34zM1655.36 1533.8h9.5v3.33h-9.5v-3.34zM1655.36 1544.26h9.5v3.33h-9.5v-3.34zM1655.36 1554.73h9.5v3.33h-9.5v-3.33zM1655.36 1565.18h9.5v3.33h-9.5v-3.32zM1584.85 1523.34h9.48v3.34h-9.48v-3.34zM1584.85 1533.8h9.48v3.33h-9.48v-3.34zM1584.85 1544.26h9.48v3.33h-9.48v-3.34zM1584.85 1554.73h9.48v3.33h-9.48v-3.33zM1584.85 1565.18h9.48v3.33h-9.48v-3.32z" stroke="#fff" stroke-opacity="0" fill="#d86613"/><g><use xlink:href="#M" transform="matrix(1,0,0,1,1554.8470036273095,1594.927573735095) translate(36 14.4)"/></g><path d="M2189.02 1576.5h-64.37v-64.37h64.37zm-61.02-3.35h57.67v-57.67H2128z" stroke="#fff" stroke-opacity="0" fill="#d86613"/><path d="M2133.85 1504.3h3.33v9.5h-3.33v-9.5zM2144.3 1504.3h3.33v9.5h-3.33v-9.5zM2154.77 1504.3h3.33v9.5h-3.33v-9.5zM2165.23 1504.3h3.34v9.5h-3.34v-9.5zM2175.7 1504.3h3.33v9.5h-3.33v-9.5zM2133.85 1574.83h3.33v9.48h-3.33v-9.47zM2144.3 1574.83h3.33v9.48h-3.33v-9.47zM2154.77 1574.83h3.33v9.48h-3.33v-9.47zM2165.23 1574.83h3.34v9.48h-3.34v-9.47zM2175.7 1574.83h3.33v9.48h-3.33v-9.47zM2187.35 1521.73h9.48v3.33h-9.48v-3.33zM2187.35 1532.18h9.48v3.33h-9.48v-3.32zM2187.35 1542.65h9.48v3.33h-9.48v-3.33zM2187.35 1553.1h9.48v3.35h-9.48v-3.34zM2187.35 1563.56h9.48v3.34h-9.48v-3.34zM2116.83 1521.73h9.5v3.33h-9.5v-3.33zM2116.83 1532.18h9.5v3.33h-9.5v-3.32zM2116.83 1542.65h9.5v3.33h-9.5v-3.33zM2116.83 1553.1h9.5v3.35h-9.5v-3.34zM2116.83 1563.56h9.5v3.34h-9.5v-3.34z" stroke="#fff" stroke-opacity="0" fill="#d86613"/><g><use xlink:href="#M" transform="matrix(1,0,0,1,2086.834175270058,1593.3126470355824) translate(36 14.4)"/></g><path d="M1845.1 1361.47h80v80h-80v-80z" stroke="#000" stroke-opacity="0" fill="url(#N)"/><path d="M1873.64 1399.54c-1.72-.77-2.85-2.53-2.85-4.46v-14.86c0-.55.3-1 .8-1.2l13.7-5.02c.28-.05.6-.05.87 0l13.7 5c.5.23.8.67.8 1.22v14.86c0 1.93-1.12 3.7-2.84 4.46-2.3 1.05-6.34 2.3-12.1 2.3-5.75 0-9.78-1.25-12.1-2.3zm28.87 10.85c.44.15.7.6.7 1.1v7.47c0 .5-.26.94-.7 1.16l-5 2.47c-.15.1-.37.1-.53.1-.2 0-.43 0-.6-.1l-4.4-2.2v4.85c0 .44-.27.88-.7 1.1l-5 2.53c-.16.05-.32.1-.53.1-.22 0-.38-.05-.54-.1l-5-2.53c-.43-.22-.7-.66-.7-1.1v-4.85l-4.4 2.2c-.17.1-.38.1-.6.1-.16 0-.38 0-.54-.1l-5-2.47c-.43-.22-.7-.66-.7-1.16v-7.48c0-.5.27-.95.7-1.12l5-2.53c.38-.16.75-.16 1.13 0l4.94 2.54c.43.15.7.6.7 1.1v4.83l4.46-2.2c.32-.22.75-.22 1.07 0l4.47 2.2v-4.84c0-.5.26-.95.7-1.12l4.94-2.53c.38-.16.75-.16 1.13 0zm10.12-13.83c0 6.38-13.87 9.85-26.88 9.85-13 0-26.88-3.47-26.88-9.85 0-3.08 3.33-5.78 9.46-7.6l.7 2.43c-4.73 1.37-7.7 3.4-7.7 5.17 0 3.47 10.44 7.32 24.42 7.32 13.97 0 24.4-3.86 24.4-7.33 0-1.76-2.95-3.8-7.7-5.17l.7-2.43c6.14 1.82 9.48 4.52 9.48 7.6zm-15.8.72c.85-.4 1.4-1.22 1.4-2.22v-13.1l-11.25 4.08v13.26c4.68-.16 7.9-1.15 9.84-2.03zm-23.56-2.22c0 1 .54 1.82 1.4 2.2 1.94.9 5.16 1.88 9.84 2.04v-13.26l-11.24-4.08zm12.48-18.54l-10.06 3.68 10.06 3.64 10.05-3.64zm-3.77 43.2v4.73l2.53 1.22v-4.7zm5 5.95l2.53-1.23v-4.73l-2.53 1.27zm-16.18-12.18v4.68l2.46 1.27v-4.74zm5 5.95l2.46-1.27v-4.68l-2.47 1.2zm17.4-5.95v4.68l2.48 1.27v-4.74zm5 5.95l2.48-1.27v-4.68l-2.47 1.2zm-23.7-9.1l-2.2 1.12 2.2 1.1 2.2-1.1zm22.47.02l-2.2 1.1 2.2 1.1 2.2-1.1zm-11.23 6.2l-2.2 1.1 2.2 1.1 2.2-1.1z" stroke="#000" stroke-opacity="0" fill="#fff"/><g><use xlink:href="#O" transform="matrix(1,0,0,1,1815.0958391085346,1450.468683050014) translate(16.4 14.4)"/><use xlink:href="#P" transform="matrix(1,0,0,1,1815.0958391085346,1450.468683050014) translate(61.699999999999996 14.4)"/></g><path d="M1284.74 417.33h120v120h-120v-120z" stroke="#000" stroke-opacity="0" fill="url(#Q)"/><path d="M1379.33 494.42c.58.33.95.9.95 1.57 0 .65-.3 1.22-.88 1.64l-33.7 20.6c-.35.17-.65.25-1 .25-.3 0-.67-.1-.96-.25l-33.76-20.6c-.52-.34-.88-1-.88-1.66v-39.34c0-.66.36-1.23.88-1.56l29.96-18.8c.58-.33 1.3-.33 1.9 0 .58.33 1.02.9 1.02 1.65v16.82c0 .66-.36 1.23-.95 1.65l-14.1 8.73v22.26l16.96 10.24 19.66-10.8c.6-.25 1.24-.25 1.83.08zm-34.64 20.03l30.02-18.38-9.42-5.44-19.73 10.8c-.6.33-1.25.25-1.83-.08l-18.7-11.22c-.6-.33-.96-1-.96-1.64v-24.33c0-.66.37-1.24.88-1.57l14.1-8.82v-12.45l-26.23 16.4V495zm36.53-59.44c.58.34.95 1 .95 1.66v31.82c0 .66-.37 1.32-.88 1.65-.3.17-.66.25-1.02.25-.3 0-.5-.08-.8-.16l-15-7.5c-.64-.34-1-1-1-1.74v-15.74l-15.94-8.82c-.6-.33-.95-.9-.95-1.65v-16.82c0-.66.36-1.32.94-1.65.58-.33 1.32-.33 1.83 0zm-2.78 30.52v-27.78l-28.13-16.57v12.52l15.93 8.82c.58.33.95 1 .95 1.65v15.66zm-23.02-21.35l-9.5 11.87 9.94 12.53h-4.16l-8.84-11.3v11.22h-3.8v-24.33h3.8v9.8l8.33-9.8z" stroke="#000" stroke-opacity="0" fill="#fff"/><g><use xlink:href="#R" transform="matrix(1,0,0,1,1254.7390985485567,546.3333333333721) translate(28.074999999999996 14.4)"/><use xlink:href="#S" transform="matrix(1,0,0,1,1254.7390985485567,546.3333333333721) translate(99.025 14.4)"/><use xlink:href="#T" transform="matrix(1,0,0,1,1254.7390985485567,546.3333333333721) translate(2.5999999999999943 36)"/><use xlink:href="#U" transform="matrix(1,0,0,1,1254.7390985485567,546.3333333333721) translate(85.45 36)"/></g><path d="M616.7 1153.92a8 8 0 0 1 8-8h285a8 8 0 0 1 8 8v44a8 8 0 0 1-8 8h-285a8 8 0 0 1-8-8z" stroke="#000" stroke-opacity="0" stroke-width="3" fill="#fff" fill-opacity="0"/><g><use xlink:href="#V" transform="matrix(1,0,0,1,621.6874006818648,1150.9225063543745) translate(4.324999999999989 30.025)"/><use xlink:href="#W" transform="matrix(1,0,0,1,621.6874006818648,1150.9225063543745) translate(46.27499999999999 30.025)"/><use xlink:href="#X" transform="matrix(1,0,0,1,621.6874006818648,1150.9225063543745) translate(105.175 30.025)"/><use xlink:href="#Y" transform="matrix(1,0,0,1,621.6874006818648,1150.9225063543745) translate(187.97500000000002 30.025)"/></g><path d="M616.7 1599.12a8 8 0 0 1 8-8h285a8 8 0 0 1 8 8v44a8 8 0 0 1-8 8h-285a8 8 0 0 1-8-8z" stroke="#000" stroke-opacity="0" stroke-width="3" fill="#fff" fill-opacity="0"/><g><use xlink:href="#V" transform="matrix(1,0,0,1,621.6874006818648,1596.1194641228453) translate(1.299999999999983 30.025)"/><use xlink:href="#Z" transform="matrix(1,0,0,1,621.6874006818648,1596.1194641228453) translate(43.249999999999986 30.025)"/><use xlink:href="#X" transform="matrix(1,0,0,1,621.6874006818648,1596.1194641228453) translate(108.19999999999999 30.025)"/><use xlink:href="#Y" transform="matrix(1,0,0,1,621.6874006818648,1596.1194641228453) translate(191 30.025)"/></g><path d="M1283.24 477.33H801.46a12 12 0 0 0-12 12v215.7" stroke="#333" stroke-width="3" fill="none"/><path d="M1284.74 478.83h-1.54v-3h1.54z" stroke="#333" stroke-width=".05" fill="#333"/><path d="M789.46 720.8l-4.63-14.26h9.27z" stroke="#333" stroke-width="3" fill="#333"/><path d="M1406.24 477.33h472.43a12 12 0 0 1 12 12v211.6" stroke="#333" stroke-width="3" fill="none"/><path d="M1406.28 478.83h-1.54v-3h1.54z" stroke="#333" stroke-width=".05" fill="#333"/><path d="M1890.67 716.7l-4.64-14.27h9.27z" stroke="#333" stroke-width="3" fill="#333"/><defs><path fill="#333" d="M199 0l-22-63H83L61 0H9l90-248h61L250 0h-51zm-33-102l-36-108c-10 38-24 72-36 108h72" id="aa"/><path fill="#333" d="M275 0h-61l-44-196L126 0H64L0-248h53L97-49l45-199h58l43 199 44-199h52" id="ab"/><path fill="#333" d="M169-182c-1-43-94-46-97-3 18 66 151 10 154 114 3 95-165 93-204 36-6-8-10-19-12-30l50-8c3 46 112 56 116 5-17-69-150-10-154-114-4-87 153-88 188-35 5 8 8 18 10 28" id="ac"/><g id="a"><use transform="matrix(0.05,0,0,0.05,0,0)" xlink:href="#aa"/><use transform="matrix(0.05,0,0,0.05,11.950000000000001,0)" xlink:href="#ab"/><use transform="matrix(0.05,0,0,0.05,28.899999999999995,0)" xlink:href="#ac"/></g><path fill="#333" d="M67-125c0 53 21 87 73 88 37 1 54-22 65-47l45 17C233-25 199 4 140 4 58 4 20-42 15-125 8-235 124-281 211-232c18 10 29 29 36 50l-46 12c-8-25-30-41-62-41-52 0-71 34-72 86" id="ad"/><path fill="#333" d="M25 0v-261h50V0H25" id="ae"/><path fill="#333" d="M110-194c64 0 96 36 96 99 0 64-35 99-97 99-61 0-95-36-95-99 0-62 34-99 96-99zm-1 164c35 0 45-28 45-65 0-40-10-65-43-65-34 0-45 26-45 65 0 36 10 65 43 65" id="af"/><path fill="#333" d="M85 4C-2 5 27-109 22-190h50c7 57-23 150 33 157 60-5 35-97 40-157h50l1 190h-47c-2-12 1-28-3-38-12 25-28 42-61 42" id="ag"/><path fill="#333" d="M88-194c31-1 46 15 58 34l-1-101h50l1 261h-48c-2-10 0-23-3-31C134-8 116 4 84 4 32 4 16-41 15-95c0-56 19-97 73-99zm17 164c33 0 40-30 41-66 1-37-9-64-41-64s-38 30-39 65c0 43 13 65 39 65" id="ah"/><g id="b"><use transform="matrix(0.05,0,0,0.05,0,0)" xlink:href="#ad"/><use transform="matrix(0.05,0,0,0.05,12.950000000000001,0)" xlink:href="#ae"/><use transform="matrix(0.05,0,0,0.05,17.950000000000003,0)" xlink:href="#af"/><use transform="matrix(0.05,0,0,0.05,28.900000000000006,0)" xlink:href="#ag"/><use transform="matrix(0.05,0,0,0.05,39.85000000000001,0)" xlink:href="#ah"/></g><path fill="#333" d="M147 0H94L2-248h55l64 206c17-72 42-137 63-206h54" id="ai"/><path fill="#333" d="M24-248c93 1 206-16 204 79-1 75-69 88-152 82V0H24v-248zm52 121c47 0 100 7 100-41 0-47-54-39-100-39v80" id="aj"/><g id="c"><use transform="matrix(0.04938271604938272,0,0,0.04938271604938272,0,0)" xlink:href="#ai"/><use transform="matrix(0.04938271604938272,0,0,0.04938271604938272,11.851851851851853,0)" xlink:href="#aj"/><use transform="matrix(0.04938271604938272,0,0,0.04938271604938272,23.703703703703706,0)" xlink:href="#ad"/></g><path fill="#333" d="M27 0v-27h64v-190l-56 39v-29l58-41h29v221h61V0H27" id="ak"/><path fill="#333" d="M101-251c68 0 85 55 85 127S166 4 100 4C33 4 14-52 14-124c0-73 17-127 87-127zm-1 229c47 0 54-49 54-102s-4-102-53-102c-51 0-55 48-55 102 0 53 5 102 54 102" id="al"/><path fill="#333" d="M33 0v-38h34V0H33" id="am"/><path fill="#333" d="M0 4l72-265h28L28 4H0" id="an"/><path fill="#333" d="M110-160c48 1 74 30 74 79 0 53-28 85-80 85-65 0-83-55-86-122-5-90 50-162 133-122 14 7 22 21 27 39l-31 6c-5-40-67-38-82-6-9 19-15 44-15 74 11-20 30-34 60-33zm-7 138c34 0 49-23 49-58s-16-56-50-56c-29 0-50 16-49 49 1 36 15 65 50 65" id="ao"/><g id="d"><use transform="matrix(0.04938271604938272,0,0,0.04938271604938272,0,0)" xlink:href="#ak"/><use transform="matrix(0.04938271604938272,0,0,0.04938271604938272,9.876543209876544,0)" xlink:href="#al"/><use transform="matrix(0.04938271604938272,0,0,0.04938271604938272,19.75308641975309,0)" xlink:href="#am"/><use transform="matrix(0.04938271604938272,0,0,0.04938271604938272,24.69135802469136,0)" xlink:href="#al"/><use transform="matrix(0.04938271604938272,0,0,0.04938271604938272,34.567901234567906,0)" xlink:href="#am"/><use transform="matrix(0.04938271604938272,0,0,0.04938271604938272,39.50617283950618,0)" xlink:href="#al"/><use transform="matrix(0.04938271604938272,0,0,0.04938271604938272,49.38271604938272,0)" xlink:href="#am"/><use transform="matrix(0.04938271604938272,0,0,0.04938271604938272,54.320987654320994,0)" xlink:href="#al"/><use transform="matrix(0.04938271604938272,0,0,0.04938271604938272,64.19753086419755,0)" xlink:href="#an"/><use transform="matrix(0.04938271604938272,0,0,0.04938271604938272,69.13580246913583,0)" xlink:href="#ak"/><use transform="matrix(0.04938271604938272,0,0,0.04938271604938272,79.01234567901237,0)" xlink:href="#ao"/></g><path fill="#333" d="M128 0H69L1-190h53L99-40l48-150h52" id="ap"/><path fill="#333" d="M133-34C117-15 103 5 69 4 32 3 11-16 11-54c-1-60 55-63 116-61 1-26-3-47-28-47-18 1-26 9-28 27l-52-2c7-38 36-58 82-57s74 22 75 68l1 82c-1 14 12 18 25 15v27c-30 8-71 5-69-32zm-48 3c29 0 43-24 42-57-32 0-66-3-65 30 0 17 8 27 23 27" id="aq"/><path fill="#333" d="M25-224v-37h50v37H25zM25 0v-190h50V0H25" id="ar"/><path fill="#333" d="M135-194c52 0 70 43 70 98 0 56-19 99-73 100-30 1-46-15-58-35L72 0H24l1-261h50v104c11-23 29-37 60-37zM114-30c31 0 40-27 40-66 0-37-7-63-39-63s-41 28-41 65c0 36 8 64 40 64" id="as"/><path fill="#333" d="M115-3C79 11 28 4 28-45v-112H4v-33h27l15-45h31v45h36v33H77v99c-1 23 16 31 38 25v30" id="at"/><path fill="#333" d="M123 10C108 53 80 86 19 72V37c35 8 53-11 59-39L3-190h52l48 148c12-52 28-100 44-148h51" id="au"/><g id="e"><use transform="matrix(0.04320987654320988,0,0,0.04320987654320988,0,0)" xlink:href="#aa"/><use transform="matrix(0.04320987654320988,0,0,0.04320987654320988,10.629629629629632,0)" xlink:href="#ap"/><use transform="matrix(0.04320987654320988,0,0,0.04320987654320988,19.271604938271608,0)" xlink:href="#aq"/><use transform="matrix(0.04320987654320988,0,0,0.04320987654320988,27.913580246913583,0)" xlink:href="#ar"/><use transform="matrix(0.04320987654320988,0,0,0.04320987654320988,32.23456790123457,0)" xlink:href="#ae"/><use transform="matrix(0.04320987654320988,0,0,0.04320987654320988,36.55555555555556,0)" xlink:href="#aq"/><use transform="matrix(0.04320987654320988,0,0,0.04320987654320988,45.19753086419754,0)" xlink:href="#as"/><use transform="matrix(0.04320987654320988,0,0,0.04320987654320988,54.66049382716049,0)" xlink:href="#ar"/><use transform="matrix(0.04320987654320988,0,0,0.04320987654320988,58.98148148148148,0)" xlink:href="#ae"/><use transform="matrix(0.04320987654320988,0,0,0.04320987654320988,63.30246913580247,0)" xlink:href="#ar"/><use transform="matrix(0.04320987654320988,0,0,0.04320987654320988,67.62345679012346,0)" xlink:href="#at"/><use transform="matrix(0.04320987654320988,0,0,0.04320987654320988,72.76543209876543,0)" xlink:href="#au"/></g><path fill="#333" d="M210 0H11v-37l134-170H24v-41h178v36L68-41h142V0" id="av"/><path fill="#333" d="M135-194c87-1 58 113 63 194h-50c-7-57 23-157-34-157-59 0-34 97-39 157H25l-1-190h47c2 12-1 28 3 38 12-26 28-41 61-42" id="aw"/><path fill="#333" d="M185-48c-13 30-37 53-82 52C43 2 14-33 14-96s30-98 90-98c62 0 83 45 84 108H66c0 31 8 55 39 56 18 0 30-7 34-22zm-45-69c5-46-57-63-70-21-2 6-4 13-4 21h74" id="ax"/><g id="f"><use transform="matrix(0.04320987654320988,0,0,0.04320987654320988,0,0)" xlink:href="#av"/><use transform="matrix(0.04320987654320988,0,0,0.04320987654320988,9.462962962962964,0)" xlink:href="#af"/><use transform="matrix(0.04320987654320988,0,0,0.04320987654320988,18.925925925925927,0)" xlink:href="#aw"/><use transform="matrix(0.04320987654320988,0,0,0.04320987654320988,28.388888888888893,0)" xlink:href="#ax"/></g><use transform="matrix(0.04320987654320988,0,0,0.04320987654320988,0,0)" xlink:href="#aa" id="g"/><path fill="#333" d="M135-150c-39-12-60 13-60 57V0H25l-1-190h47c2 13-1 29 3 40 6-28 27-53 61-41v41" id="ay"/><g id="h"><use transform="matrix(0.04938271604938272,0,0,0.04938271604938272,0,0)" xlink:href="#aj"/><use transform="matrix(0.04938271604938272,0,0,0.04938271604938272,11.851851851851853,0)" xlink:href="#ay"/><use transform="matrix(0.04938271604938272,0,0,0.04938271604938272,18.765432098765434,0)" xlink:href="#ar"/><use transform="matrix(0.04938271604938272,0,0,0.04938271604938272,23.703703703703706,0)" xlink:href="#ap"/><use transform="matrix(0.04938271604938272,0,0,0.04938271604938272,33.580246913580254,0)" xlink:href="#aq"/><use transform="matrix(0.04938271604938272,0,0,0.04938271604938272,43.4567901234568,0)" xlink:href="#at"/><use transform="matrix(0.04938271604938272,0,0,0.04938271604938272,49.33333333333334,0)" xlink:href="#ax"/></g><g id="i"><use transform="matrix(0.04938271604938272,0,0,0.04938271604938272,0,0)" xlink:href="#ac"/><use transform="matrix(0.04938271604938272,0,0,0.04938271604938272,11.851851851851853,0)" xlink:href="#ag"/><use transform="matrix(0.04938271604938272,0,0,0.04938271604938272,22.666666666666668,0)" xlink:href="#as"/><use transform="matrix(0.04938271604938272,0,0,0.04938271604938272,33.48148148148148,0)" xlink:href="#aw"/><use transform="matrix(0.04938271604938272,0,0,0.04938271604938272,44.2962962962963,0)" xlink:href="#ax"/><use transform="matrix(0.04938271604938272,0,0,0.04938271604938272,54.17283950617284,0)" xlink:href="#at"/></g><path fill="#333" d="M23 0v-37h61v-169l-59 37v-38l62-41h46v211h57V0H23" id="az"/><use transform="matrix(0.04938271604938272,0,0,0.04938271604938272,0,0)" xlink:href="#az" id="j"/><path fill="#333" d="M190-63c-7 42-38 67-86 67-59 0-84-38-90-98-12-110 154-137 174-36l-49 2c-2-19-15-32-35-32-30 0-35 28-38 64-6 74 65 87 74 30" id="aA"/><g id="l"><use transform="matrix(0.04938271604938272,0,0,0.04938271604938272,0,0)" xlink:href="#aj"/><use transform="matrix(0.04938271604938272,0,0,0.04938271604938272,11.851851851851853,0)" xlink:href="#ag"/><use transform="matrix(0.04938271604938272,0,0,0.04938271604938272,22.666666666666668,0)" xlink:href="#as"/><use transform="matrix(0.04938271604938272,0,0,0.04938271604938272,33.48148148148148,0)" xlink:href="#ae"/><use transform="matrix(0.04938271604938272,0,0,0.04938271604938272,38.41975308641975,0)" xlink:href="#ar"/><use transform="matrix(0.04938271604938272,0,0,0.04938271604938272,43.358024691358025,0)" xlink:href="#aA"/></g><path fill="#333" d="M182-130c37 4 62 22 62 59C244 23 116-4 24 0v-248c84 5 203-23 205 63 0 31-19 50-47 55zM76-148c40-3 101 13 101-30 0-44-60-28-101-31v61zm0 110c48-3 116 14 116-37 0-48-69-32-116-35v72" id="aB"/><use transform="matrix(0.04320987654320988,0,0,0.04320987654320988,0,0)" xlink:href="#aB" id="m"/><path fill="#333" d="M182-182c0 78-84 86-111 141h115V0H12c-6-101 99-100 120-180 1-22-12-31-33-32-23 0-32 14-35 34l-49-3c5-45 32-70 84-70 51 0 83 22 83 69" id="aC"/><use transform="matrix(0.04938271604938272,0,0,0.04938271604938272,0,0)" xlink:href="#aC" id="n"/><path d="M30 0v-248h187v28H63v79h144v27H63v87h162V0H30" id="aD"/><path d="M194 0L95-120 63-95V0H30v-248h33v124l119-124h40L117-140 236 0h-42" id="aE"/><path d="M185-189c-5-48-123-54-124 2 14 75 158 14 163 119 3 78-121 87-175 55-17-10-28-26-33-46l33-7c5 56 141 63 141-1 0-78-155-14-162-118-5-82 145-84 179-34 5 7 8 16 11 25" id="aF"/><g id="o"><use transform="matrix(0.05,0,0,0.05,0,0)" xlink:href="#aD"/><use transform="matrix(0.05,0,0,0.05,12,0)" xlink:href="#aE"/><use transform="matrix(0.05,0,0,0.05,24,0)" xlink:href="#aF"/></g><path d="M240 0l2-218c-23 76-54 145-80 218h-23L58-218 59 0H30v-248h44l77 211c21-75 51-140 76-211h43V0h-30" id="aG"/><path d="M205 0l-28-72H64L36 0H1l101-248h38L239 0h-34zm-38-99l-47-123c-12 45-31 82-46 123h93" id="aH"/><path d="M190 0L58-211 59 0H30v-248h39L202-35l-2-213h31V0h-41" id="aI"/><path d="M143 4C61 4 22-44 18-125c-5-107 100-154 193-111 17 8 29 25 37 43l-32 9c-13-25-37-40-76-40-61 0-88 39-88 99 0 61 29 100 91 101 35 0 62-11 79-27v-45h-74v-28h105v86C228-13 192 4 143 4" id="aJ"/><path d="M30-248c118-7 216 8 213 122C240-48 200 0 122 0H30v-248zM63-27c89 8 146-16 146-99s-60-101-146-95v194" id="aK"/><g id="p"><use transform="matrix(0.05,0,0,0.05,0,0)" xlink:href="#aG"/><use transform="matrix(0.05,0,0,0.05,14.950000000000001,0)" xlink:href="#aH"/><use transform="matrix(0.05,0,0,0.05,26.950000000000003,0)" xlink:href="#aI"/><use transform="matrix(0.05,0,0,0.05,39.900000000000006,0)" xlink:href="#aH"/><use transform="matrix(0.05,0,0,0.05,51.900000000000006,0)" xlink:href="#aJ"/><use transform="matrix(0.05,0,0,0.05,65.9,0)" xlink:href="#aD"/><use transform="matrix(0.05,0,0,0.05,77.9,0)" xlink:href="#aK"/></g><path d="M140-251c81 0 123 46 123 126C263-46 219 4 140 4 59 4 17-45 17-125s42-126 123-126zm0 227c63 0 89-41 89-101s-29-99-89-99c-61 0-89 39-89 99S79-25 140-24" id="aL"/><g id="q"><use transform="matrix(0.05,0,0,0.05,0,0)" xlink:href="#aI"/><use transform="matrix(0.05,0,0,0.05,12.950000000000001,0)" xlink:href="#aL"/><use transform="matrix(0.05,0,0,0.05,26.950000000000003,0)" xlink:href="#aK"/><use transform="matrix(0.05,0,0,0.05,39.900000000000006,0)" xlink:href="#aD"/></g><path d="M233-177c-1 41-23 64-60 70L243 0h-38l-65-103H63V0H30v-248c88 3 205-21 203 71zM63-129c60-2 137 13 137-47 0-61-80-42-137-45v92" id="aM"/><path d="M232-93c-1 65-40 97-104 97C67 4 28-28 28-90v-158h33c8 89-33 224 67 224 102 0 64-133 71-224h33v155" id="aN"/><path d="M30-248c87 1 191-15 191 75 0 78-77 80-158 76V0H30v-248zm33 125c57 0 124 11 124-50 0-59-68-47-124-48v98" id="aO"/><g id="r"><use transform="matrix(0.05,0,0,0.05,0,0)" xlink:href="#aJ"/><use transform="matrix(0.05,0,0,0.05,14,0)" xlink:href="#aM"/><use transform="matrix(0.05,0,0,0.05,26.950000000000003,0)" xlink:href="#aL"/><use transform="matrix(0.05,0,0,0.05,40.95,0)" xlink:href="#aN"/><use transform="matrix(0.05,0,0,0.05,53.900000000000006,0)" xlink:href="#aO"/><use transform="matrix(0.05,0,0,0.05,65.9,0)" xlink:href="#aF"/></g><path fill="#d86613" d="M205 0l-28-72H64L36 0H1l101-248h38L239 0h-34zm-38-99l-47-123c-12 45-31 82-46 123h93" id="aP"/><path fill="#d86613" d="M84 4C-5 8 30-112 23-190h32v120c0 31 7 50 39 49 72-2 45-101 50-169h31l1 190h-30c-1-10 1-25-2-33-11 22-28 36-60 37" id="aQ"/><path fill="#d86613" d="M59-47c-2 24 18 29 38 22v24C64 9 27 4 27-40v-127H5v-23h24l9-43h21v43h35v23H59v120" id="aR"/><path fill="#d86613" d="M100-194c62-1 85 37 85 99 1 63-27 99-86 99S16-35 15-95c0-66 28-99 85-99zM99-20c44 1 53-31 53-75 0-43-8-75-51-75s-53 32-53 75 10 74 51 75" id="aS"/><g id="s"><use transform="matrix(0.05,0,0,0.05,0,0)" xlink:href="#aP"/><use transform="matrix(0.05,0,0,0.05,12,0)" xlink:href="#aQ"/><use transform="matrix(0.05,0,0,0.05,22,0)" xlink:href="#aR"/><use transform="matrix(0.05,0,0,0.05,27,0)" xlink:href="#aS"/></g><path fill="#d86613" d="M185-189c-5-48-123-54-124 2 14 75 158 14 163 119 3 78-121 87-175 55-17-10-28-26-33-46l33-7c5 56 141 63 141-1 0-78-155-14-162-118-5-82 145-84 179-34 5 7 8 16 11 25" id="aT"/><path fill="#d86613" d="M96-169c-40 0-48 33-48 73s9 75 48 75c24 0 41-14 43-38l32 2c-6 37-31 61-74 61-59 0-76-41-82-99-10-93 101-131 147-64 4 7 5 14 7 22l-32 3c-4-21-16-35-41-35" id="aU"/><path fill="#d86613" d="M141-36C126-15 110 5 73 4 37 3 15-17 15-53c-1-64 63-63 125-63 3-35-9-54-41-54-24 1-41 7-42 31l-33-3c5-37 33-52 76-52 45 0 72 20 72 64v82c-1 20 7 32 28 27v20c-31 9-61-2-59-35zM48-53c0 20 12 33 32 33 41-3 63-29 60-74-43 2-92-5-92 41" id="aV"/><path fill="#d86613" d="M24 0v-261h32V0H24" id="aW"/><path fill="#d86613" d="M24-231v-30h32v30H24zM24 0v-190h32V0H24" id="aX"/><path fill="#d86613" d="M117-194c89-4 53 116 60 194h-32v-121c0-31-8-49-39-48C34-167 62-67 57 0H25l-1-190h30c1 10-1 24 2 32 11-22 29-35 61-36" id="aY"/><path fill="#d86613" d="M177-190C167-65 218 103 67 71c-23-6-38-20-44-43l32-5c15 47 100 32 89-28v-30C133-14 115 1 83 1 29 1 15-40 15-95c0-56 16-97 71-98 29-1 48 16 59 35 1-10 0-23 2-32h30zM94-22c36 0 50-32 50-73 0-42-14-75-50-75-39 0-46 34-46 75s6 73 46 73" id="aZ"/><g id="t"><use transform="matrix(0.05,0,0,0.05,0,0)" xlink:href="#aT"/><use transform="matrix(0.05,0,0,0.05,12,0)" xlink:href="#aU"/><use transform="matrix(0.05,0,0,0.05,21,0)" xlink:href="#aV"/><use transform="matrix(0.05,0,0,0.05,31,0)" xlink:href="#aW"/><use transform="matrix(0.05,0,0,0.05,34.95,0)" xlink:href="#aX"/><use transform="matrix(0.05,0,0,0.05,38.900000000000006,0)" xlink:href="#aY"/><use transform="matrix(0.05,0,0,0.05,48.900000000000006,0)" xlink:href="#aZ"/></g><path fill="#5a6c86" d="M24 0v-248h195v40H76v63h132v40H76v65h150V0H24" id="ba"/><path fill="#5a6c86" d="M195 0l-88-114-31 24V0H24v-248h52v113l112-113h60L142-143 257 0h-62" id="bb"/><path fill="#5a6c86" d="M169-182c-1-43-94-46-97-3 18 66 151 10 154 114 3 95-165 93-204 36-6-8-10-19-12-30l50-8c3 46 112 56 116 5-17-69-150-10-154-114-4-87 153-88 188-35 5 8 8 18 10 28" id="bc"/><g id="u"><use transform="matrix(0.04999999999999998,0,0,0.04999999999999998,0,0)" xlink:href="#ba"/><use transform="matrix(0.04999999999999998,0,0,0.04999999999999998,11.999999999999996,0)" xlink:href="#bb"/><use transform="matrix(0.04999999999999998,0,0,0.04999999999999998,24.949999999999992,0)" xlink:href="#bc"/></g><path fill="#5a6c86" d="M76-208v77h127v40H76V0H24v-248h183v40H76" id="bd"/><path fill="#5a6c86" d="M199 0l-22-63H83L61 0H9l90-248h61L250 0h-51zm-33-102l-36-108c-10 38-24 72-36 108h72" id="be"/><path fill="#5a6c86" d="M240-174c0 40-23 61-54 70L253 0h-59l-57-94H76V0H24v-248c93 4 217-23 216 74zM76-134c48-2 112 12 112-38 0-48-66-32-112-35v73" id="bf"/><path fill="#5a6c86" d="M67-125c0 54 23 88 75 88 28 0 53-7 68-21v-34h-60v-39h108v91C232-14 192 4 140 4 58 4 20-42 15-125 8-236 126-280 215-234c19 10 29 26 37 47l-47 15c-11-23-29-39-63-39-53 1-75 33-75 86" id="bg"/><path fill="#5a6c86" d="M136-208V0H84v-208H4v-40h212v40h-80" id="bh"/><g id="v"><use transform="matrix(0.04999999999999998,0,0,0.04999999999999998,0,0)" xlink:href="#bd"/><use transform="matrix(0.04999999999999998,0,0,0.04999999999999998,9.949999999999996,0)" xlink:href="#be"/><use transform="matrix(0.04999999999999998,0,0,0.04999999999999998,22.89999999999999,0)" xlink:href="#bf"/><use transform="matrix(0.04999999999999998,0,0,0.04999999999999998,35.84999999999999,0)" xlink:href="#bg"/><use transform="matrix(0.04999999999999998,0,0,0.04999999999999998,49.84999999999998,0)" xlink:href="#be"/><use transform="matrix(0.04999999999999998,0,0,0.04999999999999998,61.449999999999974,0)" xlink:href="#bh"/><use transform="matrix(0.04999999999999998,0,0,0.04999999999999998,72.39999999999998,0)" xlink:href="#ba"/></g><path fill="#5a6c86" d="M24-248c93 1 206-16 204 79-1 75-69 88-152 82V0H24v-248zm52 121c47 0 100 7 100-41 0-47-54-39-100-39v80" id="bi"/><path fill="#5a6c86" d="M140-251c80 0 125 45 125 126S219 4 139 4C58 4 15-44 15-125s44-126 125-126zm-1 214c52 0 73-35 73-88 0-50-21-86-72-86-52 0-73 35-73 86s22 88 72 88" id="bj"/><path fill="#5a6c86" d="M24 0v-248h52V0H24" id="bk"/><path fill="#5a6c86" d="M24 0v-248h52v208h133V0H24" id="bl"/><g id="w"><use transform="matrix(0.04999999999999998,0,0,0.04999999999999998,0,0)" xlink:href="#bi"/><use transform="matrix(0.04999999999999998,0,0,0.04999999999999998,11.999999999999996,0)" xlink:href="#bf"/><use transform="matrix(0.04999999999999998,0,0,0.04999999999999998,24.949999999999992,0)" xlink:href="#bj"/><use transform="matrix(0.04999999999999998,0,0,0.04999999999999998,38.94999999999999,0)" xlink:href="#bd"/><use transform="matrix(0.04999999999999998,0,0,0.04999999999999998,49.899999999999984,0)" xlink:href="#bk"/><use transform="matrix(0.04999999999999998,0,0,0.04999999999999998,54.89999999999998,0)" xlink:href="#bl"/><use transform="matrix(0.04999999999999998,0,0,0.04999999999999998,65.84999999999998,0)" xlink:href="#ba"/></g><path d="M76-208v77h127v40H76V0H24v-248h183v40H76" id="bm"/><path d="M199 0l-22-63H83L61 0H9l90-248h61L250 0h-51zm-33-102l-36-108c-10 38-24 72-36 108h72" id="bn"/><path d="M240-174c0 40-23 61-54 70L253 0h-59l-57-94H76V0H24v-248c93 4 217-23 216 74zM76-134c48-2 112 12 112-38 0-48-66-32-112-35v73" id="bo"/><path d="M67-125c0 54 23 88 75 88 28 0 53-7 68-21v-34h-60v-39h108v91C232-14 192 4 140 4 58 4 20-42 15-125 8-236 126-280 215-234c19 10 29 26 37 47l-47 15c-11-23-29-39-63-39-53 1-75 33-75 86" id="bp"/><path d="M136-208V0H84v-208H4v-40h212v40h-80" id="bq"/><path d="M24 0v-248h195v40H76v63h132v40H76v65h150V0H24" id="br"/><g id="z"><use transform="matrix(0.05,0,0,0.05,0,0)" xlink:href="#bm"/><use transform="matrix(0.05,0,0,0.05,9.950000000000001,0)" xlink:href="#bn"/><use transform="matrix(0.05,0,0,0.05,22.900000000000002,0)" xlink:href="#bo"/><use transform="matrix(0.05,0,0,0.05,35.85,0)" xlink:href="#bp"/><use transform="matrix(0.05,0,0,0.05,49.85,0)" xlink:href="#bn"/><use transform="matrix(0.05,0,0,0.05,61.45,0)" xlink:href="#bq"/><use transform="matrix(0.05,0,0,0.05,72.4,0)" xlink:href="#br"/></g><path d="M24-248c93 1 206-16 204 79-1 75-69 88-152 82V0H24v-248zm52 121c47 0 100 7 100-41 0-47-54-39-100-39v80" id="bs"/><path d="M140-251c80 0 125 45 125 126S219 4 139 4C58 4 15-44 15-125s44-126 125-126zm-1 214c52 0 73-35 73-88 0-50-21-86-72-86-52 0-73 35-73 86s22 88 72 88" id="bt"/><path d="M24 0v-248h52V0H24" id="bu"/><path d="M24 0v-248h52v208h133V0H24" id="bv"/><g id="A"><use transform="matrix(0.05,0,0,0.05,0,0)" xlink:href="#bs"/><use transform="matrix(0.05,0,0,0.05,12,0)" xlink:href="#bo"/><use transform="matrix(0.05,0,0,0.05,24.950000000000003,0)" xlink:href="#bt"/><use transform="matrix(0.05,0,0,0.05,38.95,0)" xlink:href="#bm"/><use transform="matrix(0.05,0,0,0.05,49.900000000000006,0)" xlink:href="#bu"/><use transform="matrix(0.05,0,0,0.05,54.900000000000006,0)" xlink:href="#bv"/><use transform="matrix(0.05,0,0,0.05,65.85000000000001,0)" xlink:href="#br"/></g><path fill="#a9afb8" d="M199 0l-22-63H83L61 0H9l90-248h61L250 0h-51zm-33-102l-36-108c-10 38-24 72-36 108h72" id="bw"/><path fill="#a9afb8" d="M275 0h-61l-44-196L126 0H64L0-248h53L97-49l45-199h58l43 199 44-199h52" id="bx"/><path fill="#a9afb8" d="M169-182c-1-43-94-46-97-3 18 66 151 10 154 114 3 95-165 93-204 36-6-8-10-19-12-30l50-8c3 46 112 56 116 5-17-69-150-10-154-114-4-87 153-88 188-35 5 8 8 18 10 28" id="by"/><g id="B"><use transform="matrix(0.0728395061728395,0,0,0.0728395061728395,0,0)" xlink:href="#bw"/><use transform="matrix(0.0728395061728395,0,0,0.0728395061728395,17.40864197530864,0)" xlink:href="#bx"/><use transform="matrix(0.0728395061728395,0,0,0.0728395061728395,42.10123456790124,0)" xlink:href="#by"/></g><path fill="#a9afb8" d="M24 0v-248h195v40H76v63h132v40H76v65h150V0H24" id="bz"/><path fill="#a9afb8" d="M195 0l-88-114-31 24V0H24v-248h52v113l112-113h60L142-143 257 0h-62" id="bA"/><g id="C"><use transform="matrix(0.0728395061728395,0,0,0.0728395061728395,0,0)" xlink:href="#bz"/><use transform="matrix(0.0728395061728395,0,0,0.0728395061728395,17.48148148148148,0)" xlink:href="#bA"/><use transform="matrix(0.0728395061728395,0,0,0.0728395061728395,36.34691358024691,0)" xlink:href="#by"/></g><path fill="#a9afb8" d="M230 0l2-204L168 0h-37L68-204 70 0H24v-248h70l56 185 57-185h69V0h-46" id="bB"/><path fill="#a9afb8" d="M25-224v-37h50v37H25zM25 0v-190h50V0H25" id="bC"/><path fill="#a9afb8" d="M144 0l-44-69L55 0H2l70-98-66-92h53l41 62 40-62h54l-67 91 71 99h-54" id="bD"/><path fill="#a9afb8" d="M185-48c-13 30-37 53-82 52C43 2 14-33 14-96s30-98 90-98c62 0 83 45 84 108H66c0 31 8 55 39 56 18 0 30-7 34-22zm-45-69c5-46-57-63-70-21-2 6-4 13-4 21h74" id="bE"/><path fill="#a9afb8" d="M88-194c31-1 46 15 58 34l-1-101h50l1 261h-48c-2-10 0-23-3-31C134-8 116 4 84 4 32 4 16-41 15-95c0-56 19-97 73-99zm17 164c33 0 40-30 41-66 1-37-9-64-41-64s-38 30-39 65c0 43 13 65 39 65" id="bF"/><g id="D"><use transform="matrix(0.0728395061728395,0,0,0.0728395061728395,0,0)" xlink:href="#bB"/><use transform="matrix(0.0728395061728395,0,0,0.0728395061728395,21.77901234567901,0)" xlink:href="#bC"/><use transform="matrix(0.0728395061728395,0,0,0.0728395061728395,29.06296296296296,0)" xlink:href="#bD"/><use transform="matrix(0.0728395061728395,0,0,0.0728395061728395,43.63086419753086,0)" xlink:href="#bE"/><use transform="matrix(0.0728395061728395,0,0,0.0728395061728395,58.19876543209875,0)" xlink:href="#bF"/></g><path fill="#a9afb8" d="M135-194c53 0 70 44 70 98 0 56-19 98-73 100-31 1-45-17-59-34 3 33 2 69 2 105H25l-1-265h48c2 10 0 23 3 31 11-24 29-35 60-35zM114-30c33 0 39-31 40-66 0-38-9-64-40-64-56 0-55 130 0 130" id="bG"/><path fill="#a9afb8" d="M25 0v-261h50V0H25" id="bH"/><path fill="#a9afb8" d="M110-194c64 0 96 36 96 99 0 64-35 99-97 99-61 0-95-36-95-99 0-62 34-99 96-99zm-1 164c35 0 45-28 45-65 0-40-10-65-43-65-34 0-45 26-45 65 0 36 10 65 43 65" id="bI"/><path fill="#a9afb8" d="M123 10C108 53 80 86 19 72V37c35 8 53-11 59-39L3-190h52l48 148c12-52 28-100 44-148h51" id="bJ"/><path fill="#a9afb8" d="M220-157c-53 9-28 100-34 157h-49v-107c1-27-5-49-29-50C55-147 81-57 75 0H25l-1-190h47c2 12-1 28 3 38 10-53 101-56 108 0 13-22 24-43 59-42 82 1 51 116 57 194h-49v-107c-1-25-5-48-29-50" id="bK"/><path fill="#a9afb8" d="M135-194c87-1 58 113 63 194h-50c-7-57 23-157-34-157-59 0-34 97-39 157H25l-1-190h47c2 12-1 28 3 38 12-26 28-41 61-42" id="bL"/><path fill="#a9afb8" d="M115-3C79 11 28 4 28-45v-112H4v-33h27l15-45h31v45h36v33H77v99c-1 23 16 31 38 25v30" id="bM"/><g id="E"><use transform="matrix(0.0728395061728395,0,0,0.0728395061728395,0,0)" xlink:href="#bF"/><use transform="matrix(0.0728395061728395,0,0,0.0728395061728395,15.95185185185185,0)" xlink:href="#bE"/><use transform="matrix(0.0728395061728395,0,0,0.0728395061728395,30.51975308641975,0)" xlink:href="#bG"/><use transform="matrix(0.0728395061728395,0,0,0.0728395061728395,46.471604938271604,0)" xlink:href="#bH"/><use transform="matrix(0.0728395061728395,0,0,0.0728395061728395,53.75555555555555,0)" xlink:href="#bI"/><use transform="matrix(0.0728395061728395,0,0,0.0728395061728395,69.7074074074074,0)" xlink:href="#bJ"/><use transform="matrix(0.0728395061728395,0,0,0.0728395061728395,84.2753086419753,0)" xlink:href="#bK"/><use transform="matrix(0.0728395061728395,0,0,0.0728395061728395,107.58395061728395,0)" xlink:href="#bE"/><use transform="matrix(0.0728395061728395,0,0,0.0728395061728395,122.15185185185184,0)" xlink:href="#bL"/><use transform="matrix(0.0728395061728395,0,0,0.0728395061728395,138.1037037037037,0)" xlink:href="#bM"/></g><path fill="#a9afb8" d="M67-93c0 74 22 123 53 168H70C40 30 18-18 18-93s22-123 52-168h50c-32 44-53 94-53 168" id="bN"/><path fill="#a9afb8" d="M76-208v77h127v40H76V0H24v-248h183v40H76" id="bO"/><path fill="#a9afb8" d="M133-34C117-15 103 5 69 4 32 3 11-16 11-54c-1-60 55-63 116-61 1-26-3-47-28-47-18 1-26 9-28 27l-52-2c7-38 36-58 82-57s74 22 75 68l1 82c-1 14 12 18 25 15v27c-30 8-71 5-69-32zm-48 3c29 0 43-24 42-57-32 0-66-3-65 30 0 17 8 27 23 27" id="bP"/><path fill="#a9afb8" d="M135-150c-39-12-60 13-60 57V0H25l-1-190h47c2 13-1 29 3 40 6-28 27-53 61-41v41" id="bQ"/><path fill="#a9afb8" d="M195-6C206 82 75 100 31 46c-4-6-6-13-8-21l49-6c3 16 16 24 34 25 40 0 42-37 40-79-11 22-30 35-61 35-53 0-70-43-70-97 0-56 18-96 73-97 30 0 46 14 59 34l2-30h47zm-90-29c32 0 41-27 41-63 0-35-9-62-40-62-32 0-39 29-40 63 0 36 9 62 39 62" id="bR"/><g id="F"><use transform="matrix(0.0728395061728395,0,0,0.0728395061728395,0,0)" xlink:href="#bN"/><use transform="matrix(0.0728395061728395,0,0,0.0728395061728395,8.667901234567902,0)" xlink:href="#bO"/><use transform="matrix(0.0728395061728395,0,0,0.0728395061728395,24.619753086419752,0)" xlink:href="#bP"/><use transform="matrix(0.0728395061728395,0,0,0.0728395061728395,39.187654320987654,0)" xlink:href="#bQ"/><use transform="matrix(0.0728395061728395,0,0,0.0728395061728395,49.385185185185186,0)" xlink:href="#bR"/><use transform="matrix(0.0728395061728395,0,0,0.0728395061728395,65.33703703703704,0)" xlink:href="#bP"/><use transform="matrix(0.0728395061728395,0,0,0.0728395061728395,79.90493827160493,0)" xlink:href="#bM"/><use transform="matrix(0.0728395061728395,0,0,0.0728395061728395,88.57283950617284,0)" xlink:href="#bE"/></g><path fill="#a9afb8" d="M24-248c93 1 206-16 204 79-1 75-69 88-152 82V0H24v-248zm52 121c47 0 100 7 100-41 0-47-54-39-100-39v80" id="bS"/><path fill="#a9afb8" d="M121-226c-27-7-43 5-38 36h38v33H83V0H34v-157H6v-33h28c-9-59 32-81 87-68v32" id="bT"/><path fill="#a9afb8" d="M137-138c1-29-70-34-71-4 15 46 118 7 119 86 1 83-164 76-172 9l43-7c4 19 20 25 44 25 33 8 57-30 24-41C81-84 22-81 20-136c-2-80 154-74 161-7" id="bU"/><path fill="#a9afb8" d="M102-93c0 74-22 123-52 168H0C30 29 54-18 53-93c0-74-22-123-53-168h50c30 45 52 94 52 168" id="bV"/><g id="G"><use transform="matrix(0.0728395061728395,0,0,0.0728395061728395,0,0)" xlink:href="#bS"/><use transform="matrix(0.0728395061728395,0,0,0.0728395061728395,17.48148148148148,0)" xlink:href="#bQ"/><use transform="matrix(0.0728395061728395,0,0,0.0728395061728395,27.679012345679013,0)" xlink:href="#bI"/><use transform="matrix(0.0728395061728395,0,0,0.0728395061728395,43.63086419753086,0)" xlink:href="#bT"/><use transform="matrix(0.0728395061728395,0,0,0.0728395061728395,52.29876543209876,0)" xlink:href="#bC"/><use transform="matrix(0.0728395061728395,0,0,0.0728395061728395,59.582716049382704,0)" xlink:href="#bH"/><use transform="matrix(0.0728395061728395,0,0,0.0728395061728395,66.86666666666666,0)" xlink:href="#bE"/><use transform="matrix(0.0728395061728395,0,0,0.0728395061728395,81.43456790123457,0)" xlink:href="#bU"/><use transform="matrix(0.0728395061728395,0,0,0.0728395061728395,96.00246913580246,0)" xlink:href="#bV"/></g><path fill="#a9afb8" d="M233-177c-1 41-23 64-60 70L243 0h-38l-65-103H63V0H30v-248c88 3 205-21 203 71zM63-129c60-2 137 13 137-47 0-61-80-42-137-45v92" id="bW"/><path fill="#a9afb8" d="M24-231v-30h32v30H24zM24 0v-190h32V0H24" id="bX"/><path fill="#a9afb8" d="M96-169c-40 0-48 33-48 73s9 75 48 75c24 0 41-14 43-38l32 2c-6 37-31 61-74 61-59 0-76-41-82-99-10-93 101-131 147-64 4 7 5 14 7 22l-32 3c-4-21-16-35-41-35" id="bY"/><path fill="#a9afb8" d="M106-169C34-169 62-67 57 0H25v-261h32l-1 103c12-21 28-36 61-36 89 0 53 116 60 194h-32v-121c2-32-8-49-39-48" id="bZ"/><path fill="#a9afb8" d="M141-36C126-15 110 5 73 4 37 3 15-17 15-53c-1-64 63-63 125-63 3-35-9-54-41-54-24 1-41 7-42 31l-33-3c5-37 33-52 76-52 45 0 72 20 72 64v82c-1 20 7 32 28 27v20c-31 9-61-2-59-35zM48-53c0 20 12 33 32 33 41-3 63-29 60-74-43 2-92-5-92 41" id="ca"/><path fill="#a9afb8" d="M114-163C36-179 61-72 57 0H25l-1-190h30c1 12-1 29 2 39 6-27 23-49 58-41v29" id="cb"/><path fill="#a9afb8" d="M85-194c31 0 48 13 60 33l-1-100h32l1 261h-30c-2-10 0-23-3-31C134-8 116 4 85 4 32 4 16-35 15-94c0-66 23-100 70-100zm9 24c-40 0-46 34-46 75 0 40 6 74 45 74 42 0 51-32 51-76 0-42-9-74-50-73" id="cc"/><path fill="#a9afb8" d="M160-131c35 5 61 23 61 61C221 17 115-2 30 0v-248c76 3 177-17 177 60 0 33-19 50-47 57zm-97-11c50-1 110 9 110-42 0-47-63-36-110-37v79zm0 115c55-2 124 14 124-45 0-56-70-42-124-44v89" id="cd"/><path fill="#a9afb8" d="M240 0l2-218c-23 76-54 145-80 218h-23L58-218 59 0H30v-248h44l77 211c21-75 51-140 76-211h43V0h-30" id="ce"/><path fill="#a9afb8" d="M143 0L79-87 56-68V0H24v-261h32v163l83-92h37l-77 82L181 0h-38" id="cf"/><g id="H"><use transform="matrix(0.04248971193415638,0,0,0.04248971193415638,0,0)" xlink:href="#bW"/><use transform="matrix(0.04248971193415638,0,0,0.04248971193415638,11.004835390946502,0)" xlink:href="#bX"/><use transform="matrix(0.04248971193415638,0,0,0.04248971193415638,14.361522633744855,0)" xlink:href="#bY"/><use transform="matrix(0.04248971193415638,0,0,0.04248971193415638,22.009670781893004,0)" xlink:href="#bZ"/><use transform="matrix(0.04248971193415638,0,0,0.04248971193415638,30.50761316872428,0)" xlink:href="#ca"/><use transform="matrix(0.04248971193415638,0,0,0.04248971193415638,39.00555555555555,0)" xlink:href="#cb"/><use transform="matrix(0.04248971193415638,0,0,0.04248971193415638,44.06183127572016,0)" xlink:href="#cc"/><use transform="matrix(0.04248971193415638,0,0,0.04248971193415638,52.559773662551436,0)" xlink:href="#cd"/><use transform="matrix(0.04248971193415638,0,0,0.04248971193415638,62.75730452674897,0)" xlink:href="#ce"/><use transform="matrix(0.04248971193415638,0,0,0.04248971193415638,75.46172839506173,0)" xlink:href="#cf"/></g><path fill="#a9afb8" d="M32 76v-337h29V76H32" id="cg"/><use transform="matrix(0.04248971193415638,0,0,0.04248971193415638,0,0)" xlink:href="#cg" id="I"/><path fill="#a9afb8" d="M179-190L93 31C79 59 56 82 12 73V49c39 6 53-20 64-50L1-190h34L92-34l54-156h33" id="ch"/><g id="J"><use transform="matrix(0.04248971193415638,0,0,0.04248971193415638,0,0)" xlink:href="#ce"/><use transform="matrix(0.04248971193415638,0,0,0.04248971193415638,12.704423868312757,0)" xlink:href="#ca"/><use transform="matrix(0.04248971193415638,0,0,0.04248971193415638,21.20236625514403,0)" xlink:href="#ch"/></g><path fill="#a9afb8" d="M27 0v-27h64v-190l-56 39v-29l58-41h29v221h61V0H27" id="ci"/><path fill="#a9afb8" d="M68-38c1 34 0 65-14 84H32c9-13 17-26 17-46H33v-38h35" id="cj"/><g id="K"><use transform="matrix(0.04248971193415638,0,0,0.04248971193415638,0,0)" xlink:href="#ci"/><use transform="matrix(0.04248971193415638,0,0,0.04248971193415638,7.350720164609052,0)" xlink:href="#ci"/><use transform="matrix(0.04248971193415638,0,0,0.04248971193415638,15.848662551440325,0)" xlink:href="#cj"/></g><path fill="#a9afb8" d="M101-251c82-7 93 87 43 132L82-64C71-53 59-42 53-27h129V0H18c2-99 128-94 128-182 0-28-16-43-45-43s-46 15-49 41l-32-3c6-41 34-60 81-64" id="ck"/><path fill="#a9afb8" d="M101-251c68 0 85 55 85 127S166 4 100 4C33 4 14-52 14-124c0-73 17-127 87-127zm-1 229c47 0 54-49 54-102s-4-102-53-102c-51 0-55 48-55 102 0 53 5 102 54 102" id="cl"/><path fill="#a9afb8" d="M126-127c33 6 58 20 58 59 0 88-139 92-164 29-3-8-5-16-6-25l32-3c6 27 21 44 54 44 32 0 52-15 52-46 0-38-36-46-79-43v-28c39 1 72-4 72-42 0-27-17-43-46-43-28 0-47 15-49 41l-32-3c6-42 35-63 81-64 48-1 79 21 79 65 0 36-21 52-52 59" id="cm"/><g id="L"><use transform="matrix(0.04248971193415638,0,0,0.04248971193415638,0,0)" xlink:href="#ck"/><use transform="matrix(0.04248971193415638,0,0,0.04248971193415638,8.497942386831275,0)" xlink:href="#cl"/><use transform="matrix(0.04248971193415638,0,0,0.04248971193415638,16.99588477366255,0)" xlink:href="#ck"/><use transform="matrix(0.04248971193415638,0,0,0.04248971193415638,25.493827160493822,0)" xlink:href="#cm"/></g><path fill="#333" d="M33 0v-248h34V0H33" id="cn"/><path fill="#333" d="M117-194c89-4 53 116 60 194h-32v-121c0-31-8-49-39-48C34-167 62-67 57 0H25l-1-190h30c1 10-1 24 2 32 11-22 29-35 61-36" id="co"/><path fill="#333" d="M135-143c-3-34-86-38-87 0 15 53 115 12 119 90S17 21 10-45l28-5c4 36 97 45 98 0-10-56-113-15-118-90-4-57 82-63 122-42 12 7 21 19 24 35" id="cp"/><path fill="#333" d="M59-47c-2 24 18 29 38 22v24C64 9 27 4 27-40v-127H5v-23h24l9-43h21v43h35v23H59v120" id="cq"/><path fill="#333" d="M141-36C126-15 110 5 73 4 37 3 15-17 15-53c-1-64 63-63 125-63 3-35-9-54-41-54-24 1-41 7-42 31l-33-3c5-37 33-52 76-52 45 0 72 20 72 64v82c-1 20 7 32 28 27v20c-31 9-61-2-59-35zM48-53c0 20 12 33 32 33 41-3 63-29 60-74-43 2-92-5-92 41" id="cr"/><path fill="#333" d="M96-169c-40 0-48 33-48 73s9 75 48 75c24 0 41-14 43-38l32 2c-6 37-31 61-74 61-59 0-76-41-82-99-10-93 101-131 147-64 4 7 5 14 7 22l-32 3c-4-21-16-35-41-35" id="cs"/><path fill="#333" d="M100-194c63 0 86 42 84 106H49c0 40 14 67 53 68 26 1 43-12 49-29l28 8c-11 28-37 45-77 45C44 4 14-33 15-96c1-61 26-98 85-98zm52 81c6-60-76-77-97-28-3 7-6 17-6 28h103" id="ct"/><g id="M"><use transform="matrix(0.05,0,0,0.05,0,0)" xlink:href="#cn"/><use transform="matrix(0.05,0,0,0.05,5,0)" xlink:href="#co"/><use transform="matrix(0.05,0,0,0.05,15,0)" xlink:href="#cp"/><use transform="matrix(0.05,0,0,0.05,24,0)" xlink:href="#cq"/><use transform="matrix(0.05,0,0,0.05,29,0)" xlink:href="#cr"/><use transform="matrix(0.05,0,0,0.05,39,0)" xlink:href="#co"/><use transform="matrix(0.05,0,0,0.05,49,0)" xlink:href="#cs"/><use transform="matrix(0.05,0,0,0.05,58,0)" xlink:href="#ct"/></g><linearGradient gradientUnits="userSpaceOnUse" id="N" x1="1845.1" y1="1441.47" x2="1925.1" y2="1361.47"><stop offset="0%" stop-color="#c8511b"/><stop offset="100%" stop-color="#f90"/></linearGradient><path d="M266 0h-40l-56-210L115 0H75L2-248h35L96-30l15-64 43-154h32l59 218 59-218h35" id="cu"/><g id="O"><use transform="matrix(0.05,0,0,0.05,0,0)" xlink:href="#aH"/><use transform="matrix(0.05,0,0,0.05,11.35,0)" xlink:href="#cu"/><use transform="matrix(0.05,0,0,0.05,28.299999999999997,0)" xlink:href="#aF"/></g><path d="M63-220v92h138v28H63V0H30v-248h175v28H63" id="cv"/><path d="M141-36C126-15 110 5 73 4 37 3 15-17 15-53c-1-64 63-63 125-63 3-35-9-54-41-54-24 1-41 7-42 31l-33-3c5-37 33-52 76-52 45 0 72 20 72 64v82c-1 20 7 32 28 27v20c-31 9-61-2-59-35zM48-53c0 20 12 33 32 33 41-3 63-29 60-74-43 2-92-5-92 41" id="cw"/><path d="M114-163C36-179 61-72 57 0H25l-1-190h30c1 12-1 29 2 39 6-27 23-49 58-41v29" id="cx"/><path d="M177-190C167-65 218 103 67 71c-23-6-38-20-44-43l32-5c15 47 100 32 89-28v-30C133-14 115 1 83 1 29 1 15-40 15-95c0-56 16-97 71-98 29-1 48 16 59 35 1-10 0-23 2-32h30zM94-22c36 0 50-32 50-73 0-42-14-75-50-75-39 0-46 34-46 75s6 73 46 73" id="cy"/><path d="M59-47c-2 24 18 29 38 22v24C64 9 27 4 27-40v-127H5v-23h24l9-43h21v43h35v23H59v120" id="cz"/><path d="M100-194c63 0 86 42 84 106H49c0 40 14 67 53 68 26 1 43-12 49-29l28 8c-11 28-37 45-77 45C44 4 14-33 15-96c1-61 26-98 85-98zm52 81c6-60-76-77-97-28-3 7-6 17-6 28h103" id="cA"/><g id="P"><use transform="matrix(0.05,0,0,0.05,0,0)" xlink:href="#cv"/><use transform="matrix(0.05,0,0,0.05,10.950000000000001,0)" xlink:href="#cw"/><use transform="matrix(0.05,0,0,0.05,20.950000000000003,0)" xlink:href="#cx"/><use transform="matrix(0.05,0,0,0.05,26.900000000000002,0)" xlink:href="#cy"/><use transform="matrix(0.05,0,0,0.05,36.900000000000006,0)" xlink:href="#cw"/><use transform="matrix(0.05,0,0,0.05,46.900000000000006,0)" xlink:href="#cz"/><use transform="matrix(0.05,0,0,0.05,51.900000000000006,0)" xlink:href="#cA"/></g><linearGradient gradientUnits="userSpaceOnUse" id="Q" x1="1284.74" y1="537.33" x2="1404.74" y2="417.33"><stop offset="0%" stop-color="#c8511b"/><stop offset="100%" stop-color="#f90"/></linearGradient><path d="M210-169c-67 3-38 105-44 169h-31v-121c0-29-5-50-35-48C34-165 62-65 56 0H25l-1-190h30c1 10-1 24 2 32 10-44 99-50 107 0 11-21 27-35 58-36 85-2 47 119 55 194h-31v-121c0-29-5-49-35-48" id="cB"/><path d="M9 0v-24l116-142H16v-24h144v24L44-24h123V0H9" id="cC"/><path d="M100-194c62-1 85 37 85 99 1 63-27 99-86 99S16-35 15-95c0-66 28-99 85-99zM99-20c44 1 53-31 53-75 0-43-8-75-51-75s-53 32-53 75 10 74 51 75" id="cD"/><path d="M117-194c89-4 53 116 60 194h-32v-121c0-31-8-49-39-48C34-167 62-67 57 0H25l-1-190h30c1 10-1 24 2 32 11-22 29-35 61-36" id="cE"/><g id="R"><use transform="matrix(0.05,0,0,0.05,0,0)" xlink:href="#aH"/><use transform="matrix(0.05,0,0,0.05,12,0)" xlink:href="#cB"/><use transform="matrix(0.05,0,0,0.05,26.950000000000003,0)" xlink:href="#cw"/><use transform="matrix(0.05,0,0,0.05,36.95,0)" xlink:href="#cC"/><use transform="matrix(0.05,0,0,0.05,45.95,0)" xlink:href="#cD"/><use transform="matrix(0.05,0,0,0.05,55.95,0)" xlink:href="#cE"/></g><path d="M24 0v-261h32V0H24" id="cF"/><path d="M135-143c-3-34-86-38-87 0 15 53 115 12 119 90S17 21 10-45l28-5c4 36 97 45 98 0-10-56-113-15-118-90-4-57 82-63 122-42 12 7 21 19 24 35" id="cG"/><path d="M24-231v-30h32v30H24zM24 0v-190h32V0H24" id="cH"/><path d="M96-169c-40 0-48 33-48 73s9 75 48 75c24 0 41-14 43-38l32 2c-6 37-31 61-74 61-59 0-76-41-82-99-10-93 101-131 147-64 4 7 5 14 7 22l-32 3c-4-21-16-35-41-35" id="cI"/><g id="S"><use transform="matrix(0.05,0,0,0.05,0,0)" xlink:href="#aD"/><use transform="matrix(0.05,0,0,0.05,12,0)" xlink:href="#cF"/><use transform="matrix(0.05,0,0,0.05,15.949999999999998,0)" xlink:href="#cw"/><use transform="matrix(0.05,0,0,0.05,25.950000000000003,0)" xlink:href="#cG"/><use transform="matrix(0.05,0,0,0.05,34.95,0)" xlink:href="#cz"/><use transform="matrix(0.05,0,0,0.05,39.95,0)" xlink:href="#cH"/><use transform="matrix(0.05,0,0,0.05,43.900000000000006,0)" xlink:href="#cI"/></g><path d="M212-179c-10-28-35-45-73-45-59 0-87 40-87 99 0 60 29 101 89 101 43 0 62-24 78-52l27 14C228-24 195 4 139 4 59 4 22-46 18-125c-6-104 99-153 187-111 19 9 31 26 39 46" id="cJ"/><g id="T"><use transform="matrix(0.05,0,0,0.05,0,0)" xlink:href="#cJ"/><use transform="matrix(0.05,0,0,0.05,12.950000000000001,0)" xlink:href="#cD"/><use transform="matrix(0.05,0,0,0.05,22.950000000000003,0)" xlink:href="#cE"/><use transform="matrix(0.05,0,0,0.05,32.95,0)" xlink:href="#cz"/><use transform="matrix(0.05,0,0,0.05,37.95,0)" xlink:href="#cw"/><use transform="matrix(0.05,0,0,0.05,47.95,0)" xlink:href="#cH"/><use transform="matrix(0.05,0,0,0.05,51.900000000000006,0)" xlink:href="#cE"/><use transform="matrix(0.05,0,0,0.05,61.900000000000006,0)" xlink:href="#cA"/><use transform="matrix(0.05,0,0,0.05,71.9,0)" xlink:href="#cx"/></g><path d="M84 4C-5 8 30-112 23-190h32v120c0 31 7 50 39 49 72-2 45-101 50-169h31l1 190h-30c-1-10 1-25-2-33-11 22-28 36-60 37" id="cK"/><path d="M115-194c53 0 69 39 70 98 0 66-23 100-70 100C84 3 66-7 56-30L54 0H23l1-261h32v101c10-23 28-34 59-34zm-8 174c40 0 45-34 45-75 0-40-5-75-45-74-42 0-51 32-51 76 0 43 10 73 51 73" id="cL"/><g id="U"><use transform="matrix(0.05,0,0,0.05,0,0)" xlink:href="#aE"/><use transform="matrix(0.05,0,0,0.05,12,0)" xlink:href="#cK"/><use transform="matrix(0.05,0,0,0.05,22,0)" xlink:href="#cL"/><use transform="matrix(0.05,0,0,0.05,32,0)" xlink:href="#cA"/><use transform="matrix(0.05,0,0,0.05,42,0)" xlink:href="#cx"/><use transform="matrix(0.05,0,0,0.05,47.95,0)" xlink:href="#cE"/><use transform="matrix(0.05,0,0,0.05,57.95,0)" xlink:href="#cA"/><use transform="matrix(0.05,0,0,0.05,67.95,0)" xlink:href="#cz"/><use transform="matrix(0.05,0,0,0.05,72.95,0)" xlink:href="#cA"/><use transform="matrix(0.05,0,0,0.05,82.95,0)" xlink:href="#cG"/></g><path fill="#333" d="M24 0v-248h195v40H76v63h132v40H76v65h150V0H24" id="cM"/><path fill="#333" d="M195 0l-88-114-31 24V0H24v-248h52v113l112-113h60L142-143 257 0h-62" id="cN"/><g id="V"><use transform="matrix(0.05,0,0,0.05,0,0)" xlink:href="#cM"/><use transform="matrix(0.05,0,0,0.05,12,0)" xlink:href="#cN"/><use transform="matrix(0.05,0,0,0.05,24.950000000000003,0)" xlink:href="#ac"/></g><g id="W"><use transform="matrix(0.05,0,0,0.05,0,0)" xlink:href="#aj"/><use transform="matrix(0.05,0,0,0.05,12,0)" xlink:href="#ag"/><use transform="matrix(0.05,0,0,0.05,22.950000000000003,0)" xlink:href="#as"/><use transform="matrix(0.05,0,0,0.05,33.900000000000006,0)" xlink:href="#ae"/><use transform="matrix(0.05,0,0,0.05,38.900000000000006,0)" xlink:href="#ar"/><use transform="matrix(0.05,0,0,0.05,43.900000000000006,0)" xlink:href="#aA"/></g><path fill="#333" d="M230 0l2-204L168 0h-37L68-204 70 0H24v-248h70l56 185 57-185h69V0h-46" id="cO"/><path fill="#333" d="M195-6C206 82 75 100 31 46c-4-6-6-13-8-21l49-6c3 16 16 24 34 25 40 0 42-37 40-79-11 22-30 35-61 35-53 0-70-43-70-97 0-56 18-96 73-97 30 0 46 14 59 34l2-30h47zm-90-29c32 0 41-27 41-63 0-35-9-62-40-62-32 0-39 29-40 63 0 36 9 62 39 62" id="cP"/><g id="X"><use transform="matrix(0.05,0,0,0.05,0,0)" xlink:href="#cO"/><use transform="matrix(0.05,0,0,0.05,14.950000000000001,0)" xlink:href="#aq"/><use transform="matrix(0.05,0,0,0.05,24.950000000000003,0)" xlink:href="#aw"/><use transform="matrix(0.05,0,0,0.05,35.900000000000006,0)" xlink:href="#aq"/><use transform="matrix(0.05,0,0,0.05,45.900000000000006,0)" xlink:href="#cP"/><use transform="matrix(0.05,0,0,0.05,56.85,0)" xlink:href="#ax"/><use transform="matrix(0.05,0,0,0.05,66.85000000000001,0)" xlink:href="#ah"/></g><path fill="#333" d="M175 0L67-191c6 58 2 128 3 191H24v-248h59L193-55c-6-58-2-129-3-193h46V0h-61" id="cQ"/><path fill="#333" d="M67-125c0 54 23 88 75 88 28 0 53-7 68-21v-34h-60v-39h108v91C232-14 192 4 140 4 58 4 20-42 15-125 8-236 126-280 215-234c19 10 29 26 37 47l-47 15c-11-23-29-39-63-39-53 1-75 33-75 86" id="cR"/><path fill="#333" d="M135-194c53 0 70 44 70 98 0 56-19 98-73 100-31 1-45-17-59-34 3 33 2 69 2 105H25l-1-265h48c2 10 0 23 3 31 11-24 29-35 60-35zM114-30c33 0 39-31 40-66 0-38-9-64-40-64-56 0-55 130 0 130" id="cS"/><g id="Y"><use transform="matrix(0.05,0,0,0.05,0,0)" xlink:href="#cQ"/><use transform="matrix(0.05,0,0,0.05,12.950000000000001,0)" xlink:href="#af"/><use transform="matrix(0.05,0,0,0.05,23.900000000000002,0)" xlink:href="#ah"/><use transform="matrix(0.05,0,0,0.05,34.85,0)" xlink:href="#ax"/><use transform="matrix(0.05,0,0,0.05,44.85,0)" xlink:href="#cR"/><use transform="matrix(0.05,0,0,0.05,58.85,0)" xlink:href="#ay"/><use transform="matrix(0.05,0,0,0.05,65.85,0)" xlink:href="#af"/><use transform="matrix(0.05,0,0,0.05,76.8,0)" xlink:href="#ag"/><use transform="matrix(0.05,0,0,0.05,87.75,0)" xlink:href="#cS"/></g><g id="Z"><use transform="matrix(0.05,0,0,0.05,0,0)" xlink:href="#aj"/><use transform="matrix(0.05,0,0,0.05,12,0)" xlink:href="#ay"/><use transform="matrix(0.05,0,0,0.05,19,0)" xlink:href="#ar"/><use transform="matrix(0.05,0,0,0.05,24,0)" xlink:href="#ap"/><use transform="matrix(0.05,0,0,0.05,34,0)" xlink:href="#aq"/><use transform="matrix(0.05,0,0,0.05,44,0)" xlink:href="#at"/><use transform="matrix(0.05,0,0,0.05,49.95,0)" xlink:href="#ax"/></g></defs></g></svg>